<svg xmlns="http://www.w3.org/2000/svg" version="1.1" xmlns:xlink="http://www.w3.org/1999/xlink" xmlns:svgjs="http://svgjs.dev/svgjs" viewBox="0 0 1422 800"><defs><linearGradient x1="50%" y1="0%" x2="50%" y2="100%" id="ccchaos-grad"><stop stop-color="hsl(162, 100%, 58%)" stop-opacity="1" offset="0%"></stop><stop stop-color="hsl(270, 73%, 53%)" stop-opacity="1" offset="100%"></stop></linearGradient></defs><g stroke-width="2" stroke="url(#ccchaos-grad)" fill="none" stroke-linecap="round"><path d="M710.32 -4.06Q718.44 0.46 726.46 5.21 734.44 10.26 742.42 15.68 750.43 21.52 758.52 27.8 766.74 34.55 775.14 41.75 783.75 49.4 792.62 57.44 801.78 65.82 811.28 74.45 821.14 83.25 831.4 92.11 842.07 100.93 853.18 109.6 864.72 118 876.71 126.05 889.15 133.65 902.02 140.74 915.31 147.25 929 153.16 943.05 158.47 957.43 163.19 972.1 167.37 987.02 171.08 1002.12 174.4 1017.35 177.44 1032.66 180.33 1047.98 183.2 1063.24 186.19 1078.39 189.43 1085.66 201.58 1091.35 213.72 1095.18 225.87 1096.93 238.02 1096.52 250.16 1093.96 262.31 1089.4 274.45 1083.07 286.6 1075.3 298.75 1066.51 310.89 1057.17 323.04 1047.76 335.18 1038.79 347.33 1030.73 359.48 1024.01 371.62 1018.98 383.77 1015.91 395.91 1014.96 408.06 1016.18 420.21 1019.5 432.35 1024.76 444.5 1031.67 456.65 1039.87 468.79 1048.92 480.94 1058.35 493.08 1067.65 505.23 1076.33 517.38 1083.94 529.52 1090.07 541.67 1094.4 553.82 1096.69 565.96 1096.83 578.11 1084.74 589.54 1072.15 601.68 1059.11 614.3 1045.65 627.16 1031.83 639.99 1017.7 652.52 1003.31 664.5 988.72 675.68 974 685.86 959.2 694.87 944.37 702.57 929.59 708.89 914.9 713.81 900.35 717.36 886 719.63 871.89 720.77 858.06 720.96 844.54 720.43 831.35 719.44 818.54 718.28 806.1 717.25 794.05 716.63 782.39 716.7 771.13 717.73 760.24 719.93 749.73 723.47 739.57 728.48 729.73 735.03 720.19 743.13 710.93 752.71 701.89 763.66 693.05 775.8 681.32 776.65 669.92 778.03 658.83 779.64 648.04 781.15 637.54 782.27 627.3 782.7 617.32 782.2 607.55 780.54 597.98 777.56 588.57 773.15 579.28 767.25 570.1 759.87 560.97 751.07 551.88 740.98 542.79 729.75 533.66 717.61 524.48 704.8 515.21 691.59 505.83 678.27 496.32 665.1 486.67 652.38 476.85 640.34 466.87 629.22 456.72 619.19 446.4 610.39 435.9 602.9 425.24 596.76 414.43 591.95 403.48 588.38 392.4 585.95 381.21 584.48 369.93 583.76 369.92 571.53 369.7 559.31 369.28 547.08 368.69 534.85 367.96 522.62 367.12 510.4 366.22 498.17 365.31 485.94 364.44 473.71 363.65 461.49 362.98 449.26 362.48 437.03 362.16 424.8 362.04 412.58 362.13 400.35 362.43 388.12 362.91 375.89 363.56 363.67 364.34 351.44 365.2 339.21 366.11 326.98 367.01 314.76 367.86 302.53 368.6 290.3 369.21 278.07 369.65 265.85 369.9 253.62 369.94 241.39 369.77 229.17 369.4 216.94 368.85 204.71 368.15 192.48 378.8 183.51 389.3 175.05 399.64 167.18 409.85 159.95 419.91 153.37 429.83 147.45 439.64 142.15 449.34 137.42 458.95 133.19 468.5 129.36 478.01 125.82 487.5 122.45 497 119.14 506.54 115.77 516.16 112.22 525.87 108.39 535.71 104.2 545.71 99.58 555.89 94.47 566.27 88.85 576.87 82.71 587.72 76.07 598.82 68.96 610.19 61.43 621.83 53.56 633.74 45.41 645.92 37.09 658.35 28.68 671.03 20.28 683.93 11.96 703.68 -0.11 710.32 -4.06" stroke-dasharray="2 5" transform="rotate(0, 711, 400)" opacity="0.05"></path><path d="M704.87 8.93Q712.71 13.23 720.54 17.75 728.4 22.56 736.34 27.73 744.38 33.3 752.57 39.3 760.95 45.75 769.55 52.65 778.42 59.98 787.57 67.71 797.04 75.79 806.86 84.14 817.05 92.68 827.62 101.33 838.59 109.98 849.96 118.54 861.73 126.89 873.9 134.95 886.46 142.62 899.39 149.84 912.66 156.53 926.26 162.66 940.15 168.21 954.28 173.17 968.63 177.58 983.13 181.48 997.75 184.93 1012.42 188.02 1027.09 190.86 1041.7 193.56 1056.21 196.24 1070.54 199.03 1076.73 210.85 1081.32 222.67 1084.1 234.49 1084.91 246.31 1083.73 258.13 1080.6 269.95 1075.69 281.77 1069.24 293.59 1061.56 305.41 1053.04 317.23 1044.1 329.05 1035.17 340.87 1026.71 352.69 1019.13 364.51 1012.8 376.33 1008.04 388.16 1005.08 399.98 1004.07 411.8 1005.06 423.62 1008 435.44 1012.75 447.26 1019.06 459.08 1026.64 470.9 1035.1 482.72 1044.02 494.54 1052.96 506.36 1061.49 518.18 1069.18 530 1075.64 541.82 1080.57 553.64 1083.71 565.46 1084.91 577.29 1073.78 588.96 1062.17 601.08 1050.11 613.41 1037.63 625.72 1024.76 637.78 1011.56 649.35 998.07 660.22 984.33 670.2 970.4 679.13 956.33 686.87 942.17 693.36 927.98 698.56 913.8 702.48 899.68 705.19 885.67 706.79 871.82 707.43 858.17 707.31 844.74 706.65 831.59 705.68 818.72 704.67 806.17 703.88 793.95 703.57 782.08 703.98 770.56 705.33 759.4 707.81 748.58 711.56 738.11 716.69 727.97 723.23 718.13 731.2 708.59 740.53 699.32 751.12 690.28 762.81 679.55 763.53 669.11 764.76 658.96 766.21 649.07 767.6 639.42 768.66 630 769.14 620.78 768.79 611.72 767.42 602.8 764.87 593.99 761.02 585.26 755.81 576.57 749.22 567.9 741.3 559.22 732.13 550.49 721.84 541.7 710.6 532.81 698.63 523.82 686.14 514.69 673.39 505.42 660.62 496 648.1 486.41 636.05 476.65 624.7 466.72 614.23 456.62 604.8 446.36 596.51 435.95 589.44 425.4 583.62 414.71 579.01 403.92 575.55 393.03 573.12 382.07 571.59 381.93 559.85 381.58 548.11 381.02 536.37 380.29 524.63 379.42 512.89 378.45 501.15 377.44 489.41 376.43 477.66 375.47 465.92 374.62 454.18 373.9 442.44 373.37 430.7 373.03 418.96 372.92 407.22 373.03 395.48 373.37 383.74 373.91 372 374.62 360.26 375.48 348.52 376.44 336.78 377.45 325.03 378.46 313.29 379.43 301.55 380.3 289.81 381.03 278.07 381.58 266.33 381.93 254.59 382.07 242.85 381.98 231.11 381.66 219.37 381.14 207.63 380.44 195.89 390.77 187.67 400.95 180.02 411 172.98 420.9 166.57 430.66 160.8 440.28 155.63 449.77 151.02 459.15 146.9 468.42 143.18 477.62 139.78 486.75 136.58 495.84 133.47 504.91 130.34 513.99 127.08 523.11 123.59 532.29 119.79 541.56 115.6 550.94 110.97 560.47 105.85 570.17 100.23 580.06 94.11 590.15 87.51 600.48 80.47 611.05 73.05 621.87 65.3 632.96 57.3 644.31 49.15 655.92 40.92 667.8 32.71 679.92 24.59 698.58 12.79 704.87 8.93" stroke-dasharray="10 4" transform="rotate(5.517241379310345, 711, 400)" opacity="0.08"></path><path d="M699.78 21.93Q707.49 26 715.27 30.3 723.15 34.87 731.15 39.79 739.32 45.09 747.69 50.81 756.29 56.96 765.14 63.55 774.28 70.56 783.72 77.97 793.49 85.73 803.6 93.79 814.06 102.06 824.89 110.46 836.08 118.92 847.62 127.33 859.53 135.6 871.77 143.63 884.34 151.34 897.22 158.66 910.37 165.5 923.77 171.84 937.38 177.63 951.16 182.85 965.08 187.52 979.08 191.66 993.12 195.31 1007.15 198.55 1021.12 201.44 1034.99 204.09 1048.69 206.61 1062.18 209.1 1067.29 220.6 1070.81 232.1 1072.59 243.6 1072.55 255.1 1070.68 266.6 1067.07 278.09 1061.89 289.59 1055.38 301.09 1047.83 312.59 1039.61 324.09 1031.07 335.59 1022.63 347.09 1014.66 358.59 1007.54 370.08 1001.59 381.58 997.09 393.08 994.25 404.58 993.19 416.08 993.97 427.58 996.55 439.08 1000.81 450.57 1006.56 462.07 1013.52 473.57 1021.38 485.07 1029.78 496.57 1038.32 508.07 1046.62 519.57 1054.29 531.06 1060.98 542.56 1066.38 554.06 1070.24 565.56 1072.38 577.06 1062.17 588.69 1051.5 600.51 1040.39 612.31 1028.87 623.87 1016.97 634.99 1004.71 645.49 992.13 655.18 979.28 663.92 966.2 671.6 952.93 678.14 939.51 683.49 925.99 687.66 912.42 690.69 898.85 692.66 885.3 693.7 871.84 693.96 858.49 693.62 845.3 692.89 832.3 692 819.52 691.17 806.98 690.65 794.72 690.65 782.74 691.39 771.07 693.05 759.7 695.78 748.65 699.72 737.92 704.93 727.51 711.45 717.4 719.28 707.58 728.36 698.04 738.58 688.77 749.81 679 750.42 669.49 751.5 660.22 752.8 651.17 754.07 633.7 755.21 616.66 754.24 608.31 752.08 600.02 748.74 591.76 744.17 583.49 738.34 575.2 731.25 566.86 722.98 558.44 713.61 549.93 703.29 541.3 692.17 532.53 680.47 523.63 668.38 514.57 656.13 505.34 643.94 495.96 632.03 486.4 620.62 476.68 609.88 466.8 599.98 456.78 591.05 446.6 583.18 436.3 576.44 425.89 570.83 415.38 566.35 404.79 562.92 394.13 560.45 393.85 549.18 393.35 537.9 392.65 526.63 391.77 515.36 390.77 504.09 389.69 492.82 388.58 481.54 387.48 470.27 386.45 459 385.55 447.73 384.8 436.46 384.24 425.18 383.9 413.91 383.8 402.64 383.94 391.37 384.31 380.09 384.9 368.82 385.67 357.55 386.6 346.28 387.64 335.01 388.74 323.73 389.86 312.46 390.93 301.19 391.91 289.92 392.76 278.64 393.44 267.37 393.91 256.1 394.15 244.83 394.16 233.55 393.93 222.28 393.47 211.01 392.8 199.74 402.82 192.35 412.7 185.55 422.45 179.35 432.06 173.77 441.53 168.77 450.86 164.3 460.06 160.32 469.14 156.74 478.1 153.48 486.97 150.44 495.75 147.52 504.48 144.6 513.15 141.6 521.81 138.41 530.47 134.96 539.16 131.16 547.91 126.95 556.73 122.29 565.65 117.16 574.7 111.54 583.91 105.44 593.28 98.89 602.86 91.93 612.64 84.6 622.66 76.99 632.91 69.15 643.42 61.18 654.18 53.14 665.2 45.12 676.47 37.2 693.89 25.69 699.78 21.93" stroke-dasharray="7 6" transform="rotate(11.03448275862069, 711, 400)" opacity="0.12"></path><path d="M695.37 34.93Q703.08 38.78 710.91 42.85 718.89 47.19 727.05 51.86 735.41 56.89 744 62.33 752.84 68.18 761.96 74.45 771.36 81.14 781.07 88.22 791.09 95.66 801.44 103.39 812.11 111.37 823.1 119.51 834.42 127.74 846.05 135.97 857.97 144.12 870.18 152.09 882.65 159.8 895.36 167.18 908.27 174.16 921.36 180.67 934.59 186.69 947.92 192.17 961.32 197.12 974.74 201.53 988.14 205.44 1001.47 208.89 1014.7 211.94 1027.77 214.67 1040.64 217.15 1053.28 219.5 1057.32 230.67 1059.82 241.85 1060.68 253.03 1059.86 264.2 1057.4 275.38 1053.39 286.55 1048.01 297.73 1041.5 308.9 1034.13 320.08 1026.22 331.26 1018.1 342.43 1010.13 353.61 1002.65 364.78 995.98 375.96 990.4 387.14 986.15 398.31 983.42 409.49 982.33 420.66 982.91 431.84 985.15 443.01 988.95 454.19 994.14 465.37 1000.51 476.54 1007.78 487.72 1015.63 498.89 1023.74 510.07 1031.75 521.25 1039.32 532.42 1046.13 543.6 1051.88 554.78 1056.33 565.95 1059.28 577.13 1049.94 588.44 1040.16 599.72 1029.98 610.77 1019.39 621.41 1008.42 631.48 997.1 640.82 985.45 649.3 973.51 656.81 961.31 663.28 948.88 668.68 936.26 672.98 923.5 676.23 910.62 678.48 897.68 679.83 884.71 680.42 871.75 680.38 858.83 679.91 846 679.19 833.29 678.42 820.72 677.81 808.33 677.56 796.14 677.88 784.18 678.93 772.47 680.88 761.01 683.85 749.82 687.94 738.92 693.22 728.29 699.7 717.95 707.37 707.89 716.18 698.11 726.03 688.59 736.81 671.17 738.36 654.32 740.56 638.16 741.7 622.27 741.02 606.54 735.78 590.77 727.22 582.79 720.93 574.72 713.51 566.56 705.05 558.27 695.64 549.85 685.41 541.29 674.53 532.57 663.18 523.69 651.54 514.65 639.81 505.45 628.19 496.09 616.87 486.57 606.03 476.9 595.84 467.1 586.43 457.17 577.92 447.12 570.38 436.97 563.88 426.74 558.42 416.44 553.98 406.1 550.52 405.66 539.69 405 528.87 404.15 518.05 403.14 507.22 402.02 496.4 400.83 485.58 399.63 474.75 398.46 463.93 397.38 453.11 396.44 442.28 395.67 431.46 395.11 420.63 394.77 409.81 394.69 398.99 394.85 388.16 395.25 377.34 395.88 366.52 396.71 355.69 397.7 344.87 398.81 334.05 399.99 323.22 401.2 312.4 402.37 301.58 403.46 290.75 404.43 279.93 405.22 269.11 405.82 258.28 406.18 247.46 406.31 236.64 406.18 225.81 405.81 214.99 405.21 204.17 414.92 197.65 424.52 191.72 433.98 186.36 443.31 181.56 452.5 177.29 461.56 173.47 470.48 170.05 479.28 166.94 487.95 164.06 496.52 161.31 504.99 158.6 513.38 155.82 521.7 152.9 529.98 149.75 538.23 146.29 546.48 142.46 554.74 138.22 563.05 133.53 571.42 128.37 579.88 122.75 588.45 116.68 597.15 110.19 606.01 103.31 615.05 96.1 624.28 88.63 633.72 80.96 643.39 73.17 653.29 65.33 663.43 57.52 673.83 49.8 689.92 38.59 695.37 34.93" stroke-dasharray="5 6" transform="rotate(16.551724137931036, 711, 400)" opacity="0.15"></path><path d="M691.9 47.93Q699.7 51.57 707.66 55.42 715.81 59.53 724.16 63.95 732.74 68.72 741.57 73.87 750.65 79.42 760 85.37 769.63 91.73 779.55 98.48 789.77 105.57 800.27 112.98 811.06 120.64 822.13 128.49 833.47 136.47 845.07 144.49 856.91 152.48 868.97 160.35 881.23 168.02 893.65 175.43 906.22 182.49 918.9 189.16 931.66 195.37 944.45 201.1 957.25 206.32 970.02 211.03 982.72 215.23 995.31 218.95 1007.75 222.24 1020 225.13 1032.03 227.71 1043.81 230.06 1046.82 240.91 1048.36 251.75 1048.38 262.6 1046.87 273.45 1043.9 284.3 1039.57 295.15 1034.07 305.99 1027.61 316.84 1020.45 327.69 1012.87 338.54 1005.18 349.39 997.68 360.23 990.67 371.08 984.43 381.93 979.21 392.78 975.21 403.63 972.59 414.47 971.47 425.32 971.87 436.17 973.8 447.02 977.16 457.86 981.83 468.71 987.62 479.56 994.3 490.41 1001.61 501.26 1009.24 512.1 1016.91 522.95 1024.31 533.8 1031.13 544.65 1037.11 555.49 1042.02 566.34 1045.65 577.19 1037.11 587.94 1028.19 598.46 1018.87 608.59 1009.18 618.19 999.13 627.12 988.72 635.26 978 642.52 966.97 648.84 955.66 654.17 944.1 658.51 932.33 661.87 920.37 664.31 908.26 665.9 896.03 666.75 883.72 666.98 871.36 666.75 858.99 666.22 846.63 665.56 834.32 664.95 822.1 664.59 809.99 664.63 798.01 665.26 786.19 666.61 774.56 668.83 763.13 672.01 751.92 676.23 740.94 681.54 730.2 687.96 719.71 695.46 709.47 704 699.49 713.49 689.75 723.81 673.89 725.12 658.43 727.07 643.39 728.19 628.45 727.74 613.45 723.29 598.28 715.87 590.55 710.33 582.71 703.73 574.74 696.14 566.64 687.63 558.4 678.3 550 668.28 541.44 657.71 532.73 646.76 523.86 635.6 514.83 624.39 505.66 613.32 496.34 602.56 486.88 592.25 477.3 582.54 467.6 573.55 457.81 565.38 447.93 558.1 437.98 551.76 427.98 546.38 417.94 541.93 417.33 531.54 416.51 521.14 415.52 510.75 414.38 500.35 413.15 489.96 411.87 479.56 410.6 469.17 409.38 458.78 408.27 448.38 407.3 437.99 406.52 427.59 405.96 417.2 405.64 406.8 405.57 396.41 405.76 386.01 406.2 375.62 406.86 365.22 407.73 354.83 408.77 344.44 409.94 334.04 411.19 323.65 412.47 313.25 413.74 302.86 414.93 292.46 416.01 282.07 416.92 271.67 417.65 261.28 418.14 250.88 418.39 240.49 418.39 230.09 418.13 219.7 417.63 209.3 427.05 203.67 436.36 198.59 445.55 194.03 454.61 189.97 463.53 186.35 472.33 183.11 480.99 180.17 489.53 177.45 506.18 172.33 522.51 167.09 538.42 160.88 554.19 153.69 562.03 149.4 569.87 144.68 577.75 139.5 585.67 133.88 593.67 127.84 601.76 121.41 609.96 114.63 618.3 107.54 626.8 100.22 635.46 92.73 644.32 85.13 653.38 77.49 662.66 69.89 672.17 62.39 686.9 51.49 691.9 47.93" stroke-dasharray="8 10" transform="rotate(22.06896551724138, 711, 400)" opacity="0.18"></path><path d="M689.58 60.93Q697.53 64.36 705.66 67.99 714.01 71.87 722.57 76.05 731.36 80.56 740.39 85.42 749.68 90.67 759.22 96.31 769.01 102.34 779.07 108.74 789.39 115.48 799.95 122.55 810.76 129.88 821.8 137.42 833.06 145.11 844.52 152.89 856.16 160.69 867.96 168.41 879.9 176.01 891.94 183.39 904.07 190.5 916.24 197.27 928.44 203.65 940.63 209.6 952.77 215.09 964.83 220.09 976.78 224.6 988.59 228.63 1000.22 232.2 1011.65 235.36 1022.83 238.13 1033.76 240.6 1035.79 251.11 1036.45 261.62 1035.71 272.13 1033.6 282.64 1030.21 293.15 1025.64 303.66 1020.08 314.17 1013.72 324.68 1006.8 335.19 999.58 345.7 992.32 356.21 985.28 366.72 978.73 377.23 972.91 387.75 968.03 398.26 964.27 408.77 961.77 419.28 960.62 429.79 960.86 440.3 962.49 450.81 965.44 461.32 969.61 471.83 974.85 482.34 980.95 492.85 987.7 503.36 994.84 513.87 1002.12 524.39 1009.27 534.9 1016.02 545.41 1022.13 555.92 1027.36 566.43 1031.54 576.94 1023.75 586.92 1015.61 596.51 1007.12 605.6 998.27 614.07 989.09 621.81 979.58 628.75 969.75 634.84 959.62 640.02 949.2 644.3 938.53 647.69 927.63 650.23 916.51 651.97 905.21 653.02 893.76 653.47 882.18 653.45 870.5 653.11 858.76 652.58 846.98 652.04 835.19 651.63 823.43 651.52 811.71 651.86 800.07 652.79 788.53 654.43 777.11 656.88 765.84 660.25 754.72 664.58 743.79 669.9 733.05 676.24 722.51 683.56 712.19 691.82 702.08 700.93 692.2 710.81 677.67 711.9 663.37 713.61 649.23 714.68 635.05 714.42 620.61 710.68 605.91 704.3 598.37 699.45 590.7 693.64 582.9 686.89 574.95 679.25 566.84 670.81 558.59 661.67 550.18 651.93 541.62 641.73 532.91 631.22 524.05 620.55 515.06 609.87 505.93 599.33 496.68 589.07 487.33 579.24 477.87 569.96 468.34 561.33 458.73 553.44 449.06 546.36 439.36 540.12 429.63 534.75 428.85 524.77 427.88 514.78 426.75 504.8 425.5 494.81 424.17 484.83 422.82 474.84 421.49 464.86 420.24 454.87 419.1 444.89 418.13 434.9 417.36 424.91 416.81 414.93 416.51 404.94 416.46 394.96 416.68 384.97 417.14 374.99 417.84 365 418.74 355.02 419.83 345.03 421.04 335.05 422.35 325.06 423.7 315.08 425.04 305.09 426.32 295.11 427.5 285.12 428.54 275.14 429.38 265.15 430.01 255.17 430.4 245.19 430.54 235.2 434.8 217.84 448.21 206.19 457.12 202.37 465.92 198.97 474.6 195.93 483.14 193.17 499.79 188.25 516.06 183.5 531.76 178.25 547.17 172.29 562.23 164.61 577.16 155.72 584.6 150.52 592.05 144.92 599.54 138.92 607.08 132.55 614.69 125.87 622.4 118.93 630.22 111.76 638.17 104.45 646.27 97.05 654.54 89.63 663 82.25 671.64 74.97 685.04 64.38 689.58 60.93" stroke-dasharray="6 8" transform="rotate(27.586206896551726, 711, 400)" opacity="0.21"></path><path d="M688.54 73.92Q696.66 77.16 704.98 80.58 713.51 84.23 722.25 88.17 731.22 92.42 740.41 97 749.84 101.95 759.49 107.27 769.37 112.96 779.48 119.01 789.8 125.4 800.32 132.11 811.04 139.09 821.94 146.3 833 153.69 844.21 161.2 855.54 168.76 866.98 176.3 878.49 183.77 890.06 191.09 901.66 198.19 913.26 205.02 924.83 211.53 936.34 217.66 947.77 223.38 959.09 228.65 970.26 233.47 981.27 237.83 992.09 241.73 1002.68 245.19 1018.63 254.67 1024.09 271.26 1022.69 281.42 1020.08 291.59 1016.35 301.75 1011.62 311.91 1006.05 322.07 999.84 332.23 993.19 342.39 986.34 352.55 979.5 362.71 972.92 372.88 966.82 383.04 961.4 393.2 956.85 403.36 953.32 413.52 950.94 423.68 949.77 433.84 949.87 444 951.23 454.17 953.8 464.33 957.5 474.49 962.2 484.65 967.74 494.81 973.93 504.97 980.56 515.13 987.42 525.29 994.25 535.45 1000.85 545.61 1006.97 555.77 1012.42 565.94 1017 576.1 1009.9 585.13 1002.48 593.68 994.75 601.64 986.7 608.94 978.34 615.51 969.68 621.28 960.71 626.25 951.45 630.39 941.92 633.72 932.13 636.27 922.09 638.1 911.83 639.28 901.37 639.89 890.73 640.06 879.93 639.88 869.01 639.5 857.97 639.04 846.86 638.65 835.68 638.47 824.48 638.63 813.28 639.26 802.09 640.47 790.94 642.38 779.86 645.05 768.87 648.57 757.98 652.98 747.22 658.3 736.6 664.54 726.13 671.66 715.83 679.63 705.71 688.38 695.78 697.81 682.33 698.69 668.96 700.16 655.51 701.18 641.9 701.08 627.88 697.96 613.52 692.52 606.13 688.32 598.59 683.24 590.91 677.28 583.08 670.5 575.11 662.93 566.98 654.66 558.71 645.77 550.29 636.38 541.74 626.6 533.05 616.56 524.24 606.38 515.31 596.21 506.28 586.17 497.15 576.39 487.95 567 478.67 558.09 469.34 549.77 459.97 542.11 450.57 535.16 441.15 528.99 440.21 519.39 439.1 509.8 437.84 500.21 436.49 490.62 435.08 481.02 433.67 471.43 432.31 461.84 431.04 452.24 429.9 442.65 428.94 433.06 428.18 423.46 427.65 413.87 427.37 404.28 427.35 394.69 427.59 385.09 428.08 375.5 428.81 365.91 429.74 356.31 430.85 346.72 432.11 337.13 433.46 327.53 434.86 317.94 436.27 308.35 437.63 298.75 438.91 289.16 440.05 279.57 441.02 269.97 441.79 260.38 442.32 250.79 442.61 241.19 446.95 224.82 460.02 214.51 468.67 211.36 477.22 208.53 493.89 203.68 510.2 199.2 525.89 194.65 541.23 189.62 556.04 183.26 570.58 175.83 584.81 166.44 598.94 155.85 605.99 149.9 613.05 143.62 620.14 137.05 627.29 130.25 634.52 123.26 641.83 116.14 649.25 108.95 656.79 101.74 664.48 94.59 672.33 87.53 684.44 77.28 688.54 73.92" stroke-dasharray="4 6" transform="rotate(33.10344827586207, 711, 400)" opacity="0.25"></path><path d="M688.86 86.92Q697.14 89.96 705.62 93.17 714.29 96.61 723.16 100.31 732.24 104.3 741.52 108.61 751 113.25 760.67 118.25 770.54 123.6 780.58 129.3 790.8 135.33 801.17 141.67 811.69 148.3 822.34 155.16 833.1 162.21 843.95 169.42 854.88 176.71 865.85 184.03 876.86 191.32 887.87 198.53 898.87 205.58 909.82 212.42 920.71 218.99 931.51 225.26 942.19 231.17 952.73 236.69 963.12 241.8 973.32 246.47 983.32 250.71 993.09 254.52 1007.4 264.3 1011.32 280.5 1009.35 290.29 1006.33 300.09 1002.34 309.89 997.52 319.68 992.01 329.48 985.99 339.28 979.64 349.08 973.16 358.87 966.75 368.67 960.62 378.47 954.95 388.26 949.92 398.06 945.69 407.86 942.38 417.65 940.11 427.45 938.94 437.25 938.91 447.04 940.01 456.84 942.23 466.64 945.48 476.44 949.66 486.23 954.66 496.03 960.3 505.83 966.41 515.62 972.81 525.42 979.29 535.22 985.65 545.02 991.69 554.81 997.23 564.61 1002.1 574.41 995.62 582.39 988.86 589.81 981.83 596.62 974.52 602.75 966.93 608.17 959.05 612.85 950.91 616.79 942.49 619.99 933.8 622.49 924.87 624.33 915.69 625.57 906.29 626.3 896.68 626.6 886.87 626.56 876.89 626.31 866.75 625.96 856.48 625.62 846.09 625.43 835.61 625.49 825.05 625.92 814.45 626.83 803.82 628.32 793.18 630.46 782.56 633.33 771.97 636.98 761.43 641.44 750.97 646.73 740.59 652.85 730.32 659.77 720.17 667.44 710.15 675.82 700.27 684.81 687.65 685.49 674.97 686.75 662.02 687.68 648.82 687.7 635.09 685.14 620.98 680.55 613.69 676.94 606.26 672.53 598.68 667.33 590.96 661.35 583.1 654.63 575.1 647.23 566.96 639.21 558.69 630.65 550.29 621.65 541.78 612.31 533.16 602.75 524.44 593.07 515.63 583.39 506.75 573.84 497.8 564.51 488.8 555.51 479.75 546.94 470.68 538.88 461.59 531.41 452.5 524.57 451.4 515.35 450.15 506.14 448.79 496.92 447.35 487.7 445.89 478.49 444.45 469.27 443.07 460.05 441.79 450.84 440.67 441.62 439.72 432.4 438.99 423.19 438.49 413.97 438.24 404.75 438.25 395.54 438.51 386.32 439.02 377.11 439.77 367.89 440.73 358.67 441.86 349.46 443.14 340.24 444.52 331.02 445.97 321.81 447.43 312.59 448.86 303.37 450.22 294.16 451.46 284.94 452.55 275.73 453.45 266.51 454.13 257.29 454.58 248.08 459.02 232.64 471.76 223.53 488.4 218.68 504.72 214.36 520.46 210.28 535.85 205.96 550.64 200.65 565.1 194.46 579.07 186.52 592.8 177.43 599.55 172.22 606.25 166.66 612.92 160.78 619.58 154.59 626.24 148.15 632.91 141.51 639.62 134.7 646.37 127.78 653.19 120.81 660.1 113.83 667.1 106.91 674.22 100.09 685.16 90.17 688.86 86.92" stroke-dasharray="5 11" transform="rotate(38.62068965517241, 711, 400)" opacity="0.28"></path><path d="M690.51 99.92Q698.91 102.76 707.48 105.78 716.23 109 725.16 112.46 734.26 116.2 743.53 120.23 752.97 124.59 762.56 129.27 772.3 134.28 782.18 139.62 792.18 145.29 802.3 151.26 812.51 157.5 822.8 164 833.15 170.7 843.55 177.57 853.98 184.57 864.42 191.63 874.84 198.7 885.23 205.74 895.56 212.68 905.82 219.47 915.99 226.06 926.04 232.41 935.96 238.46 945.72 244.17 955.31 249.53 964.71 254.5 973.9 259.07 982.87 263.23 995.62 273.36 998.17 289.16 995.72 298.58 992.37 308 988.21 317.41 983.37 326.83 977.96 336.25 972.16 345.66 966.13 355.08 960.04 364.5 954.06 373.91 948.36 383.33 943.11 392.75 938.45 402.16 934.52 411.58 931.44 421 929.28 430.41 928.11 439.83 927.96 449.25 928.84 458.66 930.73 468.08 933.56 477.5 937.26 486.91 941.72 496.33 946.82 505.75 952.4 515.16 958.32 524.58 964.4 534 970.47 543.41 976.35 552.83 981.43 570.38 974.82 584.8 961.66 595.14 947.76 603.49 932.62 608.6 916.76 611.94 899.75 612.96 882.11 613.05 872.95 612.8 863.63 612.54 854.15 612.36 844.53 612.38 834.79 612.7 824.95 613.4 815.03 614.59 805.04 616.32 795 618.68 784.93 621.72 774.85 625.47 764.78 629.96 754.74 635.2 744.73 641.18 734.78 647.88 724.9 655.25 715.11 663.26 705.41 671.81 693.38 672.31 681.18 673.35 668.56 674.2 655.63 674.3 642.09 672.22 628.15 668.39 613.53 661.17 598.5 651.82 590.75 645.92 582.87 639.36 574.86 632.19 566.75 624.48 558.52 616.29 550.19 607.72 541.78 598.85 533.28 589.77 524.71 580.59 516.08 571.4 507.4 562.31 498.68 553.4 489.93 544.78 481.17 536.52 472.4 528.7 463.63 521.38 462.4 512.53 461.03 503.68 459.58 494.83 458.09 485.97 456.59 477.12 455.13 468.27 453.75 459.42 452.49 450.57 451.39 441.72 450.48 432.86 449.78 424.01 449.32 415.16 449.1 406.31 449.14 397.46 449.42 388.6 449.96 379.75 450.72 370.9 451.69 362.05 452.84 353.2 454.13 344.34 455.53 335.49 457.01 326.64 458.51 317.79 460 308.94 461.43 300.08 462.76 291.23 463.96 282.38 464.98 273.53 465.81 264.68 466.41 255.82 470.97 241.24 483.39 233.18 499.53 229.12 515.38 225.33 530.7 221.44 545.68 217.14 560.08 211.69 574.15 205.33 587.69 197.24 600.95 188.08 613.84 177.22 626.56 165.48 632.85 159.18 639.13 152.7 645.4 146.09 651.69 139.38 658 132.63 664.36 125.9 670.77 119.21 677.26 112.63 687.17 103.05 690.51 99.92" stroke-dasharray="7 5" transform="rotate(44.13793103448276, 711, 400)" opacity="0.31"></path><path d="M693.39 112.92Q710.42 118.39 728.05 124.63 746.24 131.89 764.93 140.31 784.04 149.98 803.47 160.87 823.11 172.84 842.84 185.69 862.52 199.11 882.01 212.75 901.18 226.21 919.89 239.12 938.01 251.1 955.42 261.88 972.03 271.23 987.75 279.07 984.66 297.11 978.25 315.15 969.18 333.19 958.39 351.23 946.99 369.26 936.15 387.3 927.01 405.34 920.5 423.38 917.29 441.42 917.71 459.46 921.73 477.5 928.93 495.54 938.55 513.58 949.62 531.62 960.99 549.66 971.48 567.7 960.41 578.59 948.56 587.12 935.86 593.26 922.28 597.18 907.83 599.19 892.52 599.79 876.41 599.58 859.57 599.26 842.07 599.54 824.03 601.08 805.55 604.49 786.76 610.21 767.77 618.53 748.72 629.52 729.72 643.06 710.88 658.82 699.28 659.05 687.33 659.98 674.96 660.84 662.13 660.89 648.78 659.47 634.91 656.05 620.51 650.26 605.61 641.91 590.23 631.02 574.43 617.82 558.27 602.7 541.81 586.19 525.13 568.93 508.31 551.58 491.44 534.81 474.58 519.25 471.76 502.25 468.71 485.26 465.75 468.27 463.16 451.28 461.23 434.28 460.15 417.29 460.04 400.3 460.9 383.31 462.65 366.31 465.1 349.32 468.01 332.33 471.07 315.34 473.96 298.35 476.39 281.36 478.11 264.36 478.94 247.37 494.9 243.38 510.57 239.87 525.91 236.45 540.86 232.68 555.39 228.21 569.49 222.73 583.14 216.02 596.37 207.97 609.19 198.58 621.66 187.95 633.84 176.28 645.8 163.84 657.64 150.94 669.44 137.94 687.36 119.04 693.39 112.92" stroke-dasharray="11 10" transform="rotate(49.6551724137931, 711, 400)" opacity="0.34"></path><path d="M697.33 125.91Q714.24 131.01 731.61 136.82 749.4 143.57 767.53 151.39 785.92 160.37 804.47 170.51 823.09 181.7 841.64 193.79 860.03 206.52 878.13 219.59 895.82 232.67 913.01 245.41 929.59 257.48 945.48 268.57 960.6 278.47 974.89 287 970.84 304.21 963.99 321.43 954.98 338.65 944.66 355.86 934 373.08 923.99 390.29 915.58 407.51 909.55 424.72 906.47 441.94 906.62 459.15 910 476.37 916.28 493.58 924.88 510.8 934.99 528.01 945.66 545.23 955.9 562.44 945.74 571.16 934.93 577.74 923.42 582.26 911.16 584.96 898.12 586.18 884.33 586.41 869.78 586.22 854.53 586.19 838.63 586.92 822.16 588.97 805.19 592.82 787.82 598.81 770.14 607.15 752.28 617.88 734.32 630.87 716.36 645.83 704.97 645.91 693.16 646.65 680.9 647.38 668.14 647.48 654.89 646.37 641.14 643.57 626.91 638.72 612.22 631.62 597.14 622.23 581.69 610.66 565.96 597.2 550 582.23 533.89 566.26 517.69 549.84 501.48 533.55 485.32 517.95 482.34 501.66 479.24 485.37 476.3 469.08 473.8 452.79 471.97 436.5 470.99 420.21 470.95 403.92 471.84 387.62 473.6 371.33 476.04 355.04 478.95 338.75 482.05 322.46 485.05 306.17 487.67 289.87 489.66 273.58 490.84 257.29 506.23 253.99 521.39 250.89 536.25 247.59 550.77 243.77 564.92 239.12 578.66 233.41 591.99 226.49 604.89 218.32 617.38 208.91 629.5 198.4 641.27 186.98 652.76 174.9 664.03 162.45 675.15 149.94 691.78 131.79 697.33 125.91" stroke-dasharray="6 6" transform="rotate(55.17241379310345, 711, 400)" opacity="0.38"></path><path d="M702.1 138.91Q718.67 143.64 735.57 149.04 752.74 155.28 770.11 162.52 787.59 170.82 805.1 180.21 822.55 190.61 839.82 201.9 856.84 213.88 873.49 226.3 889.7 238.89 905.39 251.34 920.47 263.34 934.89 274.62 948.59 284.92 961.56 294.06 956.74 310.42 949.62 326.78 940.79 343.14 931 359.5 921.09 375.86 911.89 392.21 904.18 408.57 898.61 424.93 895.66 441.29 895.57 457.65 898.36 474.01 903.78 490.37 911.38 506.73 920.52 523.09 930.41 539.45 940.23 555.81 930.86 562.54 920.98 567.41 910.52 570.58 899.45 572.32 887.72 573 875.31 573.06 862.24 573 848.52 573.32 834.17 574.53 819.26 577.07 803.82 581.3 787.94 587.51 771.69 595.82 755.14 606.25 738.39 618.67 721.52 632.83 710.21 632.78 698.45 633.33 686.23 633.94 673.53 634.06 660.37 633.2 646.76 630.94 632.72 626.93 618.31 620.96 603.56 612.96 588.52 602.96 573.27 591.13 557.86 577.76 542.35 563.23 526.81 547.97 511.29 532.48 495.86 517.23 492.77 501.64 489.66 486.04 486.8 470.45 484.41 454.86 482.71 439.27 481.83 423.67 481.86 408.08 482.79 392.49 484.53 376.9 486.96 361.31 489.84 345.71 492.96 330.12 496.03 314.53 498.8 298.94 501.04 283.35 502.56 267.76 517.37 264.92 531.99 262 546.37 258.69 560.46 254.7 574.21 249.81 587.6 243.85 600.6 236.75 613.21 228.47 625.42 219.09 637.24 208.74 648.69 197.6 659.82 185.91 670.66 173.93 681.28 161.93 696.91 144.54 702.1 138.91" stroke-dasharray="5 4" transform="rotate(60.689655172413794, 711, 400)" opacity="0.41"></path><path d="M707.4 151.91Q723.41 156.29 739.64 161.27 755.99 167.03 772.42 173.69 788.84 181.33 805.17 189.96 821.33 199.56 837.26 210.03 852.85 221.22 868.06 232.93 882.8 244.93 897.01 256.95 910.65 268.74 923.68 280.03 936.07 290.59 947.8 300.2 942.41 315.68 935.16 331.16 926.61 346.64 917.41 362.11 908.24 377.59 899.82 393.07 892.79 408.55 887.67 424.03 884.85 439.51 884.56 454.98 886.81 470.46 891.43 485.94 898.07 501.42 906.23 516.89 915.28 532.37 924.54 547.85 915.86 552.83 906.79 556.26 897.27 558.36 887.25 559.4 876.69 559.75 865.55 559.8 853.84 559.98 841.55 560.71 828.69 562.39 815.29 565.37 801.38 569.94 787.01 576.3 772.23 584.53 757.09 594.62 741.68 606.47 726.04 619.83 714.74 619.66 702.99 620.04 690.79 620.52 678.16 620.65 665.12 619.99 651.69 618.18 637.91 614.91 623.82 609.96 609.46 603.23 594.9 594.7 580.19 584.46 565.37 572.71 550.52 559.71 535.67 545.8 520.88 531.36 506.2 516.81 503.07 501.92 500.01 487.03 497.25 472.14 495 457.26 493.44 442.37 492.68 427.48 492.78 412.59 493.73 397.7 495.46 382.82 497.84 367.93 500.69 353.04 503.79 338.15 506.9 323.26 509.79 308.37 512.24 293.49 514.06 278.6 528.29 275.99 542.36 273.08 556.23 269.62 569.85 265.38 583.2 260.22 596.22 254.02 608.91 246.75 621.22 238.41 633.17 229.1 644.73 218.94 655.93 208.13 666.79 196.86 677.32 185.37 687.56 173.9 702.48 157.29 707.4 151.91" stroke-dasharray="6 1" transform="rotate(66.20689655172414, 711, 400)" opacity="0.44"></path><path d="M712.91 164.9Q728.17 168.94 743.52 173.53 758.89 178.81 774.22 184.91 789.45 191.89 804.5 199.79 819.32 208.59 833.85 218.23 848.02 228.59 861.78 239.52 875.09 250.83 887.9 262.31 900.18 273.74 911.9 284.87 923.06 295.5 933.65 305.42 927.88 320 920.66 334.57 912.48 349.15 903.89 363.72 895.48 378.3 887.82 392.87 881.42 407.45 876.73 422.03 874.05 436.6 873.58 451.18 875.35 465.75 879.22 480.33 884.95 494.91 892.14 509.48 900.56 533.1 892.45 544.42 883.75 545.73 874.66 546.32 865.13 546.54 855.15 546.71 844.67 547.21 833.7 548.37 822.23 550.5 810.26 553.89 797.82 558.73 784.94 565.18 771.63 573.28 757.95 583.01 743.95 594.26 729.66 606.83 718.33 606.55 706.59 606.78 694.45 607.14 681.94 607.24 669.08 606.74 655.9 605.31 642.44 602.67 628.74 598.63 614.86 593.05 600.84 585.88 586.72 577.16 572.56 566.99 558.4 555.57 544.29 543.13 530.26 529.97 516.36 516.4 513.24 502.23 510.27 488.06 507.66 473.88 505.58 459.71 504.17 445.53 503.53 431.36 503.7 417.19 504.67 403.01 506.38 388.84 508.7 374.67 511.48 360.49 514.54 346.32 517.66 332.15 520.63 317.97 523.25 303.8 525.35 289.63 538.96 287.05 552.45 283.99 565.79 280.28 578.93 275.76 591.84 270.31 604.48 263.89 616.82 256.48 628.84 248.13 640.52 238.94 651.85 229.02 662.83 218.56 673.46 207.75 683.76 196.77 693.75 185.84 708.18 170.03 712.91 164.9" stroke-dasharray="4 5" transform="rotate(71.72413793103448, 711, 400)" opacity="0.48"></path><path d="M718.31 177.9Q732.64 181.61 746.95 185.81 761.19 190.63 775.3 196.18 789.25 202.53 802.97 209.71 816.42 217.71 829.55 226.51 842.31 236.01 854.67 246.11 866.61 256.66 878.08 267.48 889.09 278.4 899.6 289.22 909.63 299.74 919.18 309.77 913.21 323.42 906.14 337.08 898.4 350.74 890.46 364.4 882.79 378.06 875.85 391.72 870.07 405.38 865.78 419.04 863.26 432.7 862.64 446.36 863.97 460.01 867.16 473.67 872.04 487.33 878.29 500.99 885.68 522.64 878.05 532.06 861.62 533.15 844.2 533.86 834.83 534.73 825.05 536.32 814.85 538.88 804.22 542.62 793.17 547.67 781.7 554.15 769.84 562.07 757.61 571.4 745.04 582.04 732.16 593.83 720.83 593.46 709.15 593.54 697.13 593.78 684.81 593.86 672.2 593.47 659.36 592.35 646.31 590.25 633.1 586.99 619.76 582.44 606.34 576.51 592.89 569.2 579.43 560.57 566.02 550.72 552.68 539.82 539.45 528.07 526.35 515.73 523.31 502.29 520.48 488.85 518.05 475.41 516.15 461.97 514.91 448.52 514.39 435.08 514.63 421.64 515.61 408.2 517.28 394.75 519.53 381.31 522.23 367.87 525.22 354.42 528.31 340.98 531.32 327.54 534.08 314.09 536.4 300.65 549.37 297.92 562.26 294.62 575.03 290.59 587.65 285.76 600.09 280.04 612.3 273.43 624.27 265.94 635.97 257.63 647.37 248.6 658.46 238.98 669.23 228.91 679.67 218.57 689.79 208.13 699.59 197.76 713.7 182.77 718.31 177.9" stroke-dasharray="8 10" transform="rotate(77.24137931034483, 711, 400)" opacity="0.51"></path><path d="M723.27 190.9Q736.51 194.29 749.66 198.11 762.67 202.49 775.5 207.51 788.12 213.24 800.48 219.71 812.56 226.94 824.31 234.89 835.72 243.53 846.75 252.76 857.38 262.48 867.62 272.55 877.44 282.84 886.85 293.17 895.85 303.39 904.45 313.32 898.44 326.05 891.64 338.78 884.4 351.52 877.12 364.25 870.18 376.98 863.94 389.71 858.74 402.45 854.84 415.18 852.46 427.91 851.73 440.65 852.67 453.38 855.25 466.11 859.32 478.85 864.67 491.58 863.64 515.63 848.73 520.18 832.68 521.58 815.72 524.59 806.66 527.54 797.25 531.56 787.48 536.76 777.34 543.2 766.85 550.9 756.02 559.8 744.85 569.83 733.38 580.83 722.13 580.38 710.59 580.34 698.79 580.46 686.75 580.49 674.51 580.18 662.09 579.31 649.55 577.67 636.9 575.08 624.19 571.42 611.45 566.61 598.72 560.6 586.02 553.4 573.4 545.08 560.87 535.73 548.47 525.49 536.21 514.54 533.29 501.84 530.65 489.15 528.42 476.46 526.72 463.77 525.65 451.07 525.26 438.38 525.57 425.69 526.56 413 528.18 400.3 530.34 387.61 532.94 374.92 535.83 362.23 538.86 349.54 541.87 336.84 544.71 324.15 547.21 311.46 559.51 308.46 571.76 304.82 583.93 300.46 595.99 295.32 607.91 289.37 619.67 282.61 631.22 275.1 642.56 266.89 653.64 258.09 664.46 248.81 675 239.18 685.25 229.34 695.2 219.46 704.85 209.66 718.74 195.5 723.27 190.9" stroke-dasharray="11 11" transform="rotate(82.75862068965517, 711, 400)" opacity="0.54"></path><path d="M727.49 203.9Q739.54 206.98 751.44 210.44 763.16 214.39 774.68 218.9 785.96 224.03 796.98 229.82 807.72 236.28 818.15 243.41 828.26 251.17 838.04 259.51 847.47 268.35 856.56 277.6 865.3 287.14 873.7 296.84 881.77 306.57 889.52 316.2 883.61 328.01 877.17 339.81 870.49 351.62 863.88 363.42 857.65 375.23 852.07 387.03 847.42 398.84 843.9 410.65 841.67 422.45 840.85 434.26 841.46 446.06 843.47 457.86 846.81 469.67 851.3 481.47 849.53 503.27 835.62 507.36 821.06 509.41 805.85 513.19 797.8 516.46 789.47 520.71 780.85 525.99 771.93 532.34 762.71 539.76 753.18 548.21 743.36 557.6 733.26 567.83 722.19 567.31 710.91 567.16 699.43 567.18 687.8 567.15 676.03 566.9 664.15 566.22 652.2 564.94 640.21 562.92 628.2 560.03 616.21 556.19 604.26 551.35 592.38 545.48 580.58 538.59 568.9 530.76 557.35 522.04 545.95 512.57 543.21 500.65 540.79 488.74 538.79 476.82 537.31 464.9 536.41 452.98 536.14 441.06 536.51 429.14 537.5 417.22 539.06 405.3 541.13 393.38 543.61 381.46 546.38 369.54 549.32 357.62 552.29 345.7 555.15 333.78 557.77 321.86 569.37 318.51 580.95 314.51 592.48 309.81 603.94 304.4 615.3 298.27 626.54 291.44 637.63 283.97 648.54 275.93 659.26 267.41 669.77 258.52 680.04 249.36 690.06 240.06 699.82 230.75 709.32 221.54 723.02 208.23 727.49 203.9" stroke-dasharray="5 7" transform="rotate(88.27586206896552, 711, 400)" opacity="0.57"></path><path d="M730.72 216.9Q741.51 219.68 752.12 222.79 762.54 226.33 772.75 230.35 782.72 234.91 792.45 240.03 801.91 245.76 811.1 252.07 820.01 258.97 828.62 266.41 836.95 274.34 845 282.7 852.76 291.4 860.24 300.35 867.46 309.45 874.44 318.58 868.77 329.46 862.77 340.34 856.69 351.22 850.75 362.1 845.2 372.98 840.26 383.86 836.12 394.74 832.96 405.62 830.89 416.5 829.99 427.38 830.31 438.26 831.84 449.14 834.5 460.02 838.2 470.9 835.63 490.85 822.57 494.86 809.3 497.62 795.59 502.13 788.42 505.67 781.04 510.06 773.44 515.35 765.6 521.56 757.52 528.66 749.2 536.62 740.62 545.38 731.79 554.84 721.04 554.26 710.15 554.01 699.14 553.93 688.02 553.85 676.84 553.62 665.6 553.09 654.35 552.1 643.1 550.55 631.87 548.31 620.68 545.31 609.57 541.49 598.54 536.8 587.62 531.24 576.81 524.83 566.13 517.61 555.6 509.65 553.09 498.52 550.92 487.4 549.17 476.27 547.91 465.15 547.19 454.03 547.04 442.9 547.46 431.78 548.44 420.65 549.94 409.53 551.9 398.41 554.24 387.28 556.87 376.16 559.68 365.04 562.56 353.91 565.41 342.79 568.09 331.67 578.96 327.93 589.83 323.57 600.68 318.58 611.49 312.96 622.24 306.71 632.91 299.89 643.47 292.55 653.91 284.74 664.2 276.56 674.32 268.1 684.26 259.45 694 250.72 703.53 242 712.83 233.39 726.31 220.95 730.72 216.9" stroke-dasharray="4 9" transform="rotate(93.79310344827586, 711, 400)" opacity="0.61"></path><path d="M732.76 229.9Q742.28 232.39 751.61 235.17 760.76 238.31 769.69 241.87 778.42 245.88 786.92 250.38 795.19 255.39 803.22 260.92 811.02 266.97 818.58 273.52 825.91 280.53 833 287.96 839.88 295.76 846.54 303.85 853.01 312.17 859.29 320.63 853.96 330.59 848.47 340.56 842.99 350.52 837.72 360.49 832.83 370.45 828.49 380.42 824.84 390.38 822.01 400.35 820.1 410.31 819.17 420.28 819.25 430.24 820.34 440.21 822.4 450.17 825.36 460.14 821.99 478.57 809.66 482.78 797.51 486.25 785.09 491.4 772.05 499.99 758.53 510.84 751.46 517.58 744.2 525.04 736.74 533.14 729.08 541.84 718.8 541.23 708.43 540.9 698 540.73 687.54 540.59 677.05 540.36 666.56 539.93 656.08 539.17 645.64 537.99 635.26 536.29 624.94 533.99 614.7 531.04 604.57 527.4 594.54 523.03 584.63 517.93 574.85 512.11 565.2 505.61 562.97 495.3 561.07 485 559.58 474.69 558.54 464.39 557.99 454.08 557.95 443.78 558.42 433.47 559.38 423.17 560.81 412.86 562.65 402.55 564.84 392.25 567.3 381.94 569.96 371.64 572.72 361.33 575.49 351.02 578.18 340.72 588.28 336.61 598.41 331.95 608.54 326.73 618.66 320.98 628.74 314.71 638.78 307.98 648.75 300.84 658.64 293.34 668.43 285.56 678.09 277.58 687.62 269.47 697 261.33 706.22 253.22 715.26 245.23 728.44 233.66 732.76 229.9" stroke-dasharray="1 10" transform="rotate(99.3103448275862, 711, 400)" opacity="0.64"></path><path d="M733.49 242.9Q749.77 247.73 765.53 253.45 780.35 261.06 794.61 269.97 801.4 275.2 808.01 280.87 814.43 286.96 820.68 293.45 826.77 300.31 832.69 307.48 838.85 323.27 834.29 340.68 829.43 349.74 824.81 358.81 820.55 367.87 816.77 376.93 813.58 385.99 811.07 395.05 809.32 404.11 808.37 413.18 808.25 422.24 808.96 431.3 810.49 440.36 812.79 449.42 808.67 466.61 797.01 471.21 785.83 475.34 774.54 481.02 762.87 489.66 750.9 500.19 744.71 506.53 738.38 513.45 731.9 520.91 725.27 528.84 715.61 528.2 705.91 527.81 696.2 527.56 686.49 527.37 676.79 527.13 667.13 526.76 657.51 526.17 647.95 525.28 638.46 524.01 629.06 522.29 619.74 520.07 610.52 517.31 601.42 513.97 592.42 510.03 583.55 505.49 574.8 500.36 572.86 490.89 571.25 481.42 570.02 471.95 569.2 462.49 568.81 453.02 568.88 443.55 569.39 434.09 570.33 424.62 571.67 415.15 573.38 405.69 575.4 396.22 577.69 386.75 580.16 377.29 582.77 367.82 585.42 358.35 588.04 348.89 597.35 344.47 606.7 339.58 616.07 334.23 625.45 328.45 634.82 322.26 644.17 315.71 653.49 308.85 662.75 301.73 671.96 294.41 681.09 286.95 690.12 279.42 699.06 271.89 707.87 264.4 716.56 257.04 729.3 246.38 733.49 242.9" stroke-dasharray="0 3" transform="rotate(104.82758620689654, 711, 400)" opacity="0.67"></path><path d="M732.87 255.89Q746.9 260 760.33 265.1 773.15 271.45 785.37 279.22 797.02 288.51 808.13 299.27 818.77 311.37 829.01 324.59 820.24 340.94 812.01 357.29 805.09 373.64 800.13 389.99 797.59 406.34 797.72 422.69 800.5 439.04 805.66 455.39 795.08 457.25 784.7 460.22 774.41 464.69 764.09 470.98 753.64 479.27 742.96 489.6 731.98 501.88 720.61 515.85 702.79 514.76 685.05 514.2 667.47 513.61 650.14 512.46 633.13 510.26 616.48 506.6 600.23 501.18 584.42 493.85 581.48 476.63 579.9 459.41 579.82 442.19 581.27 424.97 584.09 407.75 588.03 390.53 592.71 373.31 597.7 356.09 614.74 346.45 631.9 335.38 649.11 323.1 666.29 309.92 683.34 296.23 700.18 282.4 716.72 268.83 732.87 255.89 732.87 255.89 732.87 255.89" stroke-dasharray="1 0" transform="rotate(110.3448275862069, 711, 400)" opacity="0.71"></path><path d="M730.93 268.88Q742.81 272.46 754.21 276.83 765.15 282.2 775.65 288.72 785.74 296.47 795.45 305.47 804.85 315.67 814 326.93 806.36 341.54 799.33 356.15 793.46 370.76 789.18 385.37 786.84 399.98 786.59 414.59 788.47 429.2 792.32 443.81 782.46 446.28 772.82 449.86 763.32 454.8 753.9 461.27 744.46 469.36 734.94 479.06 725.26 490.29 715.37 502.85 699.31 501.73 683.41 501.07 667.74 500.48 652.34 499.57 637.25 497.96 622.5 495.34 608.12 491.45 594.1 486.11 591.78 470.63 590.64 455.15 590.79 439.67 592.21 424.19 594.79 408.71 598.33 393.23 602.57 377.74 607.19 362.26 622.55 352.56 638.06 341.79 653.66 330.16 669.3 317.94 684.92 305.41 700.44 292.87 715.8 280.61 730.93 268.88 730.93 268.88 730.93 268.88" stroke-dasharray="1 6" transform="rotate(115.86206896551724, 711, 400)" opacity="0.74"></path><path d="M727.8 281.88Q737.74 284.95 747.34 288.63 756.62 293.1 765.59 298.46 774.29 304.79 782.75 312.14 791.02 320.49 799.15 329.78 792.65 342.69 786.77 355.6 781.87 368.51 778.24 381.42 776.1 394.33 775.58 407.23 776.7 420.14 779.41 433.05 770.3 436.11 761.42 440.18 752.7 445.41 744.11 451.87 735.59 459.61 727.07 468.58 718.51 478.71 709.87 489.85 695.72 488.73 681.79 488.01 668.09 487.4 654.66 486.64 641.51 485.46 628.67 483.62 616.13 480.92 603.9 477.2 602.17 463.48 601.45 449.76 601.78 436.04 603.15 422.31 605.47 408.59 608.61 394.87 612.37 381.14 616.53 367.42 630.17 357.93 643.96 347.71 657.88 336.93 671.88 325.8 685.92 314.52 699.95 303.3 713.92 292.36 727.8 281.88 727.8 281.88 727.8 281.88" stroke-dasharray="5 10" transform="rotate(121.37931034482759, 711, 400)" opacity="0.77"></path><path d="M723.65 294.88Q739.81 300.8 755.34 308.45 762.8 313.5 770.13 319.32 777.35 325.94 784.51 333.33 779.14 344.58 774.34 355.82 770.33 367.06 767.3 378.3 765.38 389.54 764.67 400.78 761.92 419.41 750.55 431.2 742.64 436.52 734.86 442.79 727.19 450.01 719.58 458.14 712.01 467.12 704.43 476.85 692.3 475.77 680.39 475 668.69 474.37 657.23 473.7 646.01 472.81 635.04 471.54 624.32 469.73 613.85 467.26 612.67 455.3 612.31 443.34 612.8 431.39 614.09 419.43 616.15 407.47 618.86 395.51 622.11 383.56 625.75 371.6 637.64 362.62 649.68 353.19 661.85 343.44 674.12 333.51 686.46 323.55 698.85 313.7 717.45 299.49 723.65 294.88" stroke-dasharray="1 4" transform="rotate(126.89655172413794, 711, 400)" opacity="0.80"></path><path d="M718.74 307.88Q732.08 312.68 745.07 318.72 757.65 327.36 770.12 337.75 765.83 347.35 762.03 356.96 758.83 366.56 756.36 376.16 754.68 385.77 753.87 395.37 750.71 411.69 740.27 422.92 733.19 428.11 726.25 433.99 719.42 440.54 712.68 447.74 706.01 455.53 699.39 463.86 689.31 462.83 679.41 462.05 669.7 461.41 660.18 460.8 650.85 460.1 641.7 459.2 628.03 452.13 623.25 436.05 623.84 425.86 625.04 415.67 626.81 405.47 629.1 395.28 631.83 385.09 634.9 374.89 645.03 366.72 655.28 358.31 665.65 349.74 676.13 341.12 686.69 332.53 697.32 324.07 713.38 311.85 718.74 307.88" stroke-dasharray="10 6" transform="rotate(132.41379310344828, 711, 400)" opacity="0.84"></path><path d="M713.36 320.88Q724.25 324.5 734.92 329.25 745.48 335.4 756.02 343.15 749.84 359.13 745.41 375.1 743.15 391.08 743.26 407.06 730.58 415.32 718.37 425.46 706.55 437.37 695.04 450.86 679.05 449.18 663.61 447.97 648.71 446.72 634.35 444.95 634.26 428.07 635.98 411.2 639.34 394.32 644.02 377.44 660.83 363.12 678.03 348.63 695.57 334.41 713.36 320.88 713.36 320.88 713.36 320.88" stroke-dasharray="6 7" transform="rotate(137.9310344827586, 711, 400)" opacity="0.87"></path><path d="M707.84 333.88Q716.47 336.62 725.05 340.05 733.62 344.33 742.23 349.6 737.77 362.39 734.47 375.17 732.52 387.95 732.05 400.73 721.48 408.37 711.26 417.16 701.33 427.04 691.66 437.86 679.46 436.37 667.62 435.23 656.13 434.2 644.98 433.02 645.36 419.62 646.92 406.22 649.57 392.82 653.15 379.41 666.42 367.72 679.97 356.08 693.79 344.73 707.84 333.88 707.84 333.88 707.84 333.88" stroke-dasharray="3 2" transform="rotate(143.44827586206895, 711, 400)" opacity="0.90"></path><path d="M702.51 346.88Q715.6 351.34 728.8 357.14 725.83 366.75 723.53 376.35 721.97 385.96 721.21 395.56 712.98 402.02 704.95 409.09 697.11 416.72 689.44 424.86 672.38 422.69 655.9 420.9 656.55 410.93 657.86 400.96 659.82 390.99 662.33 381.02 672.12 372.19 682.08 363.5 697.37 350.95 702.51 346.88" stroke-dasharray="6 8" transform="rotate(148.9655172413793, 711, 400)" opacity="0.93"></path><path d="M697.7 359.88Q709.62 370.53 710.74 391.46 699.45 401.2 688.52 411.86 673.24 402.92 671.62 382.47 691.09 365.4 697.7 359.88" stroke-dasharray="6 8" transform="rotate(154.48275862068965, 711, 400)" opacity="0.97"></path></g></svg>