<svg xmlns="http://www.w3.org/2000/svg" version="1.1" xmlns:xlink="http://www.w3.org/1999/xlink" xmlns:svgjs="http://svgjs.dev/svgjs" viewBox="0 0 800 800"><defs><linearGradient x1="50%" y1="0%" x2="50%" y2="100%" id="ccchaos-grad"><stop stop-color="hsl(162, 100%, 58%)" stop-opacity="1" offset="0%"></stop><stop stop-color="hsl(270, 73%, 53%)" stop-opacity="1" offset="100%"></stop></linearGradient></defs><g stroke-width="2" stroke="url(#ccchaos-grad)" fill="none" stroke-linecap="round"><path d="M399.01 -2.14Q412.81 7.03 426.82 16.71 434.25 21.98 442.11 27.57 450.51 33.52 459.55 39.86 469.31 46.58 479.85 53.7 491.21 61.19 503.41 69.03 516.43 77.17 530.24 85.56 544.77 94.14 559.95 102.82 575.66 111.54 591.77 120.2 608.14 128.73 624.61 137.04 641.02 145.05 657.18 152.7 672.95 159.92 688.14 166.67 702.62 172.92 716.26 178.65 728.93 183.86 740.56 188.58 751.09 192.83 760.49 196.67 767.07 208.06 752.46 228.46 738.72 240.97 725.68 253.49 714.81 266.01 707.32 278.53 704.06 291.05 705.38 303.57 711.15 316.09 720.72 328.6 733 341.12 746.64 353.64 760.08 366.16 771.84 378.68 780.58 391.2 785.34 403.72 785.57 416.23 781.25 428.75 772.86 441.27 761.35 453.79 748.01 466.31 734.32 478.83 721.84 491.35 711.95 503.87 705.76 516.39 703.98 528.9 706.8 541.42 713.9 553.94 724.48 566.46 737.37 578.98 751.11 591.5 764.17 604.02 758.84 615.98 752.66 627.68 745.53 638.93 737.36 649.57 728.11 659.44 717.77 668.42 706.35 676.4 693.92 683.3 680.54 689.1 666.32 693.79 651.39 697.41 635.89 700.03 619.97 701.75 603.8 702.7 587.54 703.06 571.35 702.99 555.38 702.71 539.79 702.41 524.69 702.32 510.19 702.64 496.38 703.57 483.33 705.28 471.06 707.95 459.59 711.68 448.91 716.58 438.99 722.71 429.76 730.08 421.16 738.66 413.08 748.41 405.43 759.22 398.09 770.94 390.95 783.42 377.17 784.1 363.88 784.96 351.15 785.77 339.01 786.3 327.46 786.34 316.49 785.68 306.09 784.17 296.2 781.67 286.77 778.05 277.73 773.26 269 767.25 260.5 760.05 252.13 751.69 243.82 742.26 235.47 731.87 227.02 720.68 218.38 708.85 209.5 696.56 200.34 684.03 190.86 671.45 181.04 659.03 170.87 646.97 160.37 635.46 149.55 624.64 138.44 614.67 127.09 605.65 115.55 597.66 103.87 590.74 92.1 584.9 80.31 580.11 68.54 576.31 56.84 573.41 55.58 561.33 54.26 549.25 53.02 537.17 52 525.09 51.31 513.01 51.04 500.94 51.21 488.86 51.81 476.78 52.76 464.7 53.97 452.62 55.29 440.54 56.57 428.46 57.68 416.38 58.49 404.31 58.91 392.23 58.88 380.15 58.43 368.07 57.58 355.99 56.45 343.91 55.15 331.83 53.84 319.76 52.65 307.68 51.73 295.6 51.18 283.52 51.05 271.44 51.36 259.36 52.09 247.28 53.13 235.21 54.39 223.13 55.71 211.05 56.96 198.97 57.98 186.89 69.65 179.19 81.31 172.03 92.91 165.41 104.39 159.35 115.7 153.81 126.8 148.76 137.63 144.15 148.18 139.91 158.42 135.97 168.34 132.25 177.94 128.66 187.25 125.1 196.28 121.49 205.09 117.75 213.73 113.8 222.27 109.56 230.78 104.99 239.33 100.05 248.02 94.69 256.92 88.91 266.11 82.71 275.68 76.11 285.68 69.12 296.17 61.78 307.2 54.16 318.78 46.3 330.92 38.27 343.61 30.13 356.83 21.96 370.51 13.81 391.81 1.8 399.01 -2.14" stroke-dasharray="10 10" transform="rotate(0, 400, 400)" opacity="0.05"></path><path d="M391.18 10.94Q405.26 19.66 420.18 28.87 428.38 33.88 437.14 39.21 446.54 44.88 456.63 50.92 467.44 57.34 479.01 64.14 491.32 71.31 504.35 78.83 518.06 86.65 532.38 94.74 547.21 103.04 562.45 111.47 577.99 119.98 593.69 128.47 609.41 136.88 624.99 145.13 640.3 153.14 655.18 160.84 669.5 168.17 683.13 175.08 695.97 181.52 707.91 187.48 718.89 192.94 728.86 197.9 745.28 206.23 758.8 213.4 747.4 225.58 734.54 237.77 721.58 249.95 709.86 262.14 700.62 274.32 694.83 286.51 693.09 298.69 695.59 310.88 702.06 323.06 711.83 335.25 723.87 347.43 736.92 359.62 749.61 371.8 760.61 383.99 768.77 396.17 773.23 408.36 773.52 420.54 769.62 432.73 761.93 444.91 751.25 457.1 738.72 469.28 725.63 481.47 713.37 493.65 703.23 505.84 696.25 518.02 693.18 530.21 694.34 542.39 699.6 554.58 708.42 566.77 719.87 578.95 732.74 591.14 745.7 603.32 741.1 614.53 735.87 625.33 729.87 635.57 723.02 645.1 715.25 653.82 706.5 661.62 696.76 668.45 686.04 674.26 674.38 679.05 661.84 682.84 648.51 685.68 634.48 687.66 619.89 688.89 604.85 689.52 589.51 689.68 574.01 689.56 558.5 689.34 543.11 689.21 527.97 689.36 513.21 689.96 498.92 691.19 485.21 693.2 472.13 696.13 459.73 700.08 448.04 705.12 437.07 711.29 426.81 718.62 417.21 727.06 408.24 736.56 399.81 747.02 391.86 758.33 384.29 770.33 371.92 770.9 360.12 771.64 348.9 772.35 338.27 772.82 328.19 772.86 318.63 772.29 309.53 770.96 300.83 768.74 292.46 765.51 284.35 761.22 276.4 755.82 268.53 749.3 260.67 741.69 252.74 733.07 244.66 723.5 236.37 713.12 227.82 702.07 218.98 690.5 209.81 678.59 200.29 666.52 190.43 654.48 180.23 642.64 169.72 631.18 158.92 620.25 147.88 610 136.63 600.55 125.24 591.98 113.75 584.37 102.22 577.75 90.7 572.11 79.24 567.45 67.88 563.7 66.41 552.07 64.95 540.44 63.66 528.81 62.66 517.18 62.06 505.55 61.93 493.92 62.28 482.29 63.07 470.66 64.22 459.03 65.61 447.4 67.09 435.77 68.5 424.13 69.71 412.5 70.58 400.87 71.02 389.24 70.99 377.61 70.49 365.98 69.56 354.35 68.32 342.72 66.88 331.09 65.41 319.46 64.04 307.83 62.94 296.2 62.21 284.57 61.92 272.94 62.12 261.31 62.77 249.68 63.82 238.05 65.15 226.42 66.61 214.79 68.07 203.16 69.36 191.53 80.74 184.6 92.14 178.2 103.51 172.32 114.8 166.95 125.96 162.06 136.94 157.6 147.69 153.51 158.19 149.72 168.39 146.16 178.28 142.74 187.86 139.39 197.11 136.01 206.06 132.53 214.73 128.88 223.16 124.98 231.4 120.79 239.51 116.25 247.55 111.32 255.61 106 263.75 100.26 272.07 94.11 280.62 87.58 289.5 80.69 298.76 73.48 308.47 65.99 318.68 58.29 329.41 50.43 340.7 42.48 352.54 34.49 364.93 26.53 384.5 14.81 391.18 10.94" stroke-dasharray="6 0" transform="rotate(5.517241379310345, 400, 400)" opacity="0.08"></path><path d="M384.47 24.04Q391.75 28.08 399.37 32.23 407.43 36.53 415.98 41.04 425.11 45.81 434.85 50.87 445.24 56.26 456.3 62.01 468.03 68.12 480.41 74.59 493.4 81.44 506.96 88.62 521 96.12 535.44 103.89 550.18 111.88 565.11 120.05 580.1 128.31 595.04 136.61 609.78 144.87 624.21 153.02 638.19 160.99 651.62 168.71 664.38 176.11 676.39 183.15 687.57 189.77 697.87 195.94 707.25 201.64 715.71 206.86 729.54 215.68 740.97 223.25 729.24 235.09 716.79 246.93 704.85 258.77 694.59 270.61 687.01 282.45 682.86 294.29 682.53 306.13 686.06 317.97 693.1 329.81 702.97 341.65 714.7 353.49 727.15 365.33 739.09 377.17 749.36 389.02 756.95 400.86 761.12 412.7 761.47 424.54 757.96 436.38 750.92 448.22 741.06 460.06 729.34 471.9 716.89 483.74 704.95 495.58 694.67 507.42 687.06 519.26 682.88 531.1 682.51 542.94 686.01 554.78 693.03 566.62 702.88 578.46 714.6 590.3 727.04 602.14 722.94 612.46 718.41 622.25 713.31 631.4 707.55 639.79 701.03 647.35 693.68 654.01 685.46 659.75 676.35 664.54 666.36 668.41 655.49 671.39 643.81 673.57 631.38 675.02 618.28 675.87 604.61 676.25 590.47 676.31 575.99 676.2 561.29 676.09 546.49 676.15 531.73 676.55 517.11 677.44 502.74 678.97 488.73 681.26 475.17 684.44 462.13 688.57 449.66 693.72 437.81 699.92 426.59 707.18 416.02 715.46 406.07 724.7 396.72 734.83 387.93 745.71 379.63 757.23 368.84 757.7 358.62 758.33 348.94 758.95 339.77 759.36 322.91 758.56 307.05 755.76 292.1 748.56 277.23 738.35 269.66 731.47 261.91 723.61 253.93 714.86 245.66 705.29 237.08 695.03 228.17 684.21 218.91 672.98 209.31 661.49 199.38 649.91 189.14 638.4 178.61 627.11 167.85 616.21 156.88 605.82 145.77 596.07 134.55 587.07 123.29 578.88 112.02 571.57 100.8 565.17 89.66 559.69 78.65 555.09 77.03 543.89 75.5 532.69 74.22 521.49 73.3 510.29 72.84 499.09 72.89 487.89 73.44 476.7 74.43 465.5 75.77 454.3 77.33 443.1 78.95 431.9 80.48 420.7 81.77 409.5 82.69 398.3 83.14 387.1 83.1 375.9 82.55 364.7 81.56 353.51 80.22 342.31 78.67 331.11 77.04 319.91 75.51 308.71 74.23 297.51 73.31 286.31 72.85 275.11 72.89 263.91 73.43 252.71 74.42 241.51 75.76 230.31 77.32 219.11 78.94 207.91 80.47 196.71 91.55 190.56 102.67 184.91 113.8 179.75 124.88 175.04 135.88 170.76 146.73 166.83 157.41 163.2 167.86 159.8 178.04 156.56 187.94 153.39 197.53 150.23 206.8 146.99 215.74 143.61 224.38 140.02 232.73 136.15 240.82 131.98 248.7 127.45 256.42 122.54 264.04 117.24 271.63 111.54 279.26 105.46 286.99 99 294.92 92.21 303.11 85.13 311.62 77.79 320.54 70.25 329.89 62.56 339.74 54.8 350.11 47 361.02 39.24 378.47 27.8 384.47 24.04" stroke-dasharray="0 9" transform="rotate(11.03448275862069, 400, 400)" opacity="0.12"></path><path d="M379.74 37.13Q387.7 40.96 396.11 44.88 405.04 48.96 414.52 53.23 424.58 57.75 435.23 62.55 446.48 67.66 458.3 73.11 470.68 78.91 483.57 85.06 496.9 91.57 510.6 98.41 524.59 105.57 538.77 113.01 553.05 120.69 567.3 128.55 581.42 136.56 595.3 144.63 608.82 152.7 621.89 160.72 634.41 168.61 646.29 176.3 657.46 183.74 667.86 190.87 677.45 197.63 686.21 204 700.89 215.18 713.26 224.99 714.67 236.72 699.36 255.81 688.66 267.29 679.95 278.77 674.02 290.25 671.41 301.74 672.35 313.22 676.76 324.7 684.25 336.18 694.12 347.66 705.48 359.15 717.3 370.63 728.5 382.11 738.06 393.6 745.11 405.08 749.02 416.56 749.41 428.04 746.27 439.53 739.87 451.01 730.8 462.49 719.87 473.97 708.1 485.46 696.55 496.94 686.26 508.42 678.18 519.9 673.04 531.39 671.31 542.87 673.14 554.35 678.37 565.84 686.53 577.32 696.87 588.8 708.45 600.28 704.62 609.6 700.55 618.31 690.89 633.17 679.51 645.6 672.62 650.32 664.96 654.19 656.5 657.24 647.24 659.54 637.18 661.15 626.37 662.18 614.85 662.75 602.69 662.96 589.95 662.98 576.74 662.94 563.16 662.98 549.29 663.26 535.26 663.92 521.17 665.1 507.13 666.91 493.24 669.47 479.58 672.86 466.26 677.15 453.34 682.39 440.88 688.6 428.93 695.77 417.53 703.87 406.7 712.85 396.44 722.62 386.73 733.09 377.57 744.14 359.88 745.04 343.52 745.91 328.77 745.21 314.56 742.74 300.55 736.35 286.23 727.22 278.75 721.02 271.01 713.91 262.97 705.94 254.61 697.17 245.91 687.71 236.87 677.66 227.48 667.15 217.78 656.3 207.77 645.26 197.49 634.17 186.97 623.18 176.27 612.43 165.42 602.04 154.47 592.14 143.46 582.83 132.46 574.21 121.49 566.34 110.6 559.27 99.82 553.03 89.19 547.63 87.47 536.85 85.94 526.06 84.73 515.28 83.96 504.49 83.68 493.7 83.94 482.92 84.7 472.13 85.9 461.35 87.43 450.56 89.14 439.78 90.89 428.99 92.5 418.21 93.85 407.42 94.8 396.64 95.27 385.85 95.21 375.07 94.63 364.28 93.58 353.5 92.16 342.71 90.5 331.93 88.75 321.14 87.07 310.35 85.6 299.57 84.49 288.78 83.84 278 83.7 267.21 84.09 256.43 84.97 245.64 86.26 234.86 87.84 224.07 89.58 213.29 91.31 202.5 102.06 197.12 112.89 192.19 123.75 187.71 134.61 183.61 145.41 179.87 156.13 176.42 166.7 173.19 177.09 170.12 187.26 167.14 197.18 164.17 206.81 161.15 216.13 158.01 225.14 154.69 233.83 151.13 242.2 147.28 250.28 143.11 258.08 138.59 265.65 133.69 273.03 128.41 280.26 122.75 287.42 116.73 294.57 110.36 301.77 103.68 309.1 96.72 316.62 89.53 324.4 82.16 332.52 74.66 341.01 67.09 349.95 59.5 359.36 51.94 374.51 40.8 379.74 37.13" stroke-dasharray="2 11" transform="rotate(16.551724137931036, 400, 400)" opacity="0.15"></path><path d="M377.59 50.23Q386.37 53.84 395.65 57.55 405.44 61.4 415.77 65.45 426.62 69.72 437.98 74.26 449.83 79.09 462.13 84.24 474.82 89.73 487.85 95.56 501.14 101.72 514.61 108.22 528.17 115.03 541.73 122.13 555.2 129.47 568.47 137.02 581.46 144.73 594.06 152.54 606.2 160.4 617.79 168.24 628.78 176.01 639.1 183.64 648.71 191.07 657.58 198.24 665.71 205.11 673.1 211.63 685.45 223.28 695.96 233.64 696.7 245.62 682.39 264.28 673.08 275.39 665.96 286.51 661.63 297.62 660.46 308.73 662.53 319.84 667.69 330.95 675.49 342.06 685.28 353.17 696.22 364.28 707.4 375.39 717.86 386.5 726.74 397.61 733.27 408.72 736.91 419.83 737.35 430.94 734.55 442.05 728.74 453.16 720.43 464.27 710.31 475.38 699.23 486.49 688.13 497.6 677.95 508.71 669.55 519.82 663.63 530.93 660.7 542.04 661 553.15 664.51 564.26 670.93 575.37 679.72 586.48 690.14 597.59 682.46 613.07 674.21 626.46 663.97 636.01 652.04 643.25 636.78 647.03 619.37 649.18 609.43 649.55 598.83 649.69 587.61 649.73 575.84 649.79 563.58 650.02 550.91 650.54 537.93 651.47 524.71 652.92 511.36 655.01 497.97 657.81 484.62 661.39 471.41 665.82 458.42 671.13 445.71 677.31 433.36 684.38 421.41 692.29 409.91 700.99 398.89 710.42 388.38 720.47 378.36 731.05 363.36 731.76 349.28 732.47 336.05 731.85 322.92 729.68 309.34 724.02 295.14 715.9 287.58 710.35 279.71 703.94 271.51 696.73 262.97 688.75 254.09 680.08 244.89 670.81 235.37 661.04 225.56 650.88 215.49 640.45 205.21 629.88 194.75 619.28 184.15 608.8 173.46 598.54 162.72 588.63 151.98 579.17 141.28 570.26 130.65 561.96 120.13 554.35 109.74 547.47 99.52 541.34 97.78 530.95 96.32 520.57 95.25 510.18 94.66 499.79 94.61 489.41 95.1 479.02 96.09 468.63 97.49 458.25 99.18 447.86 101.03 437.47 102.88 427.09 104.57 416.7 105.95 406.31 106.92 395.92 107.39 385.54 107.31 375.15 106.71 364.76 105.62 354.38 104.14 343.99 102.4 333.6 100.53 323.22 98.71 312.83 97.08 302.44 95.78 292.05 94.92 281.67 94.57 271.28 94.77 260.89 95.49 250.5 96.68 240.12 98.23 229.73 100.01 219.34 101.88 208.96 112.28 204.3 122.78 200.06 133.35 196.19 143.94 192.65 154.53 189.38 165.07 186.33 175.51 183.44 185.82 180.64 195.96 177.86 205.88 175.05 215.55 172.13 224.96 169.05 234.06 165.76 242.85 162.21 251.33 158.36 259.48 154.18 267.34 149.65 274.91 144.76 282.22 139.51 289.31 133.9 296.22 127.94 303.01 121.66 309.74 115.09 316.45 108.27 323.23 101.24 330.13 94.05 337.22 86.74 344.56 79.36 352.21 71.98 360.24 64.63 373.14 53.79 377.59 50.23" stroke-dasharray="5 1" transform="rotate(22.06896551724138, 400, 400)" opacity="0.18"></path><path d="M378.3 63.32Q387.88 66.72 397.93 70.22 408.45 73.86 419.41 77.68 430.8 81.71 442.58 85.99 454.7 90.55 467.11 95.4 479.74 100.58 492.53 106.08 505.4 111.91 518.28 118.05 531.07 124.51 543.7 131.25 556.09 138.24 568.15 145.46 579.81 152.85 591.01 160.37 601.67 167.98 611.76 175.61 621.23 183.21 630.05 190.73 638.2 198.1 645.69 205.28 652.52 212.21 658.73 218.84 669.2 230.89 678.28 241.77 678.85 254.01 666 272.25 658.18 282.97 652.66 293.69 649.85 304.42 649.98 315.14 653.05 325.86 658.8 336.58 666.8 347.3 676.41 358.03 686.89 368.75 697.41 379.47 707.16 390.19 715.38 400.91 721.41 411.64 724.8 422.36 725.28 433.08 722.8 443.8 717.57 454.52 709.98 465.25 700.65 475.97 690.28 486.69 679.7 497.41 669.72 508.14 661.14 518.86 654.61 529.58 650.65 540.3 649.57 551.03 651.45 561.75 656.15 572.47 663.29 583.19 672.32 593.92 664.68 607.2 656.93 618.43 648 626.12 637.85 631.79 625.05 634.58 610.41 636.09 601.97 636.34 592.9 636.47 583.21 636.58 572.95 636.8 562.14 637.24 550.85 638.01 539.14 639.21 527.07 640.93 514.73 643.27 502.18 646.28 489.51 650.04 476.8 654.58 464.12 659.92 451.56 666.06 439.18 673.01 427.04 680.71 415.2 689.13 403.71 698.2 392.6 707.84 381.91 717.95 369.02 718.49 356.57 719.06 344.23 718.49 331.6 716.58 317.99 711.59 303.56 704.4 295.79 699.45 287.7 693.72 279.27 687.23 270.52 680.02 261.45 672.13 252.08 663.64 242.45 654.64 232.58 645.2 222.51 635.43 212.27 625.44 201.92 615.33 191.48 605.22 181.01 595.23 170.55 585.44 160.12 575.97 149.77 566.91 139.53 558.34 129.42 550.32 119.46 542.93 109.68 536.18 108 526.18 106.67 516.18 105.8 506.17 105.45 496.17 105.65 486.17 106.39 476.17 107.6 466.16 109.2 456.16 111.05 446.16 113.01 436.15 114.94 426.15 116.67 416.15 118.08 406.14 119.05 396.14 119.51 386.14 119.42 376.14 118.79 366.13 117.67 356.13 116.15 346.13 114.34 336.12 112.38 326.12 110.44 316.12 108.65 306.12 107.17 296.11 106.1 286.11 105.53 276.11 105.51 266.1 106.03 256.1 107.05 246.1 108.5 236.1 110.27 226.09 112.2 216.09 122.22 212.12 132.36 208.49 142.59 205.17 152.89 202.11 163.21 199.25 173.53 196.54 183.81 193.92 193.99 191.32 204.06 188.7 213.95 185.98 223.65 183.12 233.12 180.07 242.32 176.79 251.24 173.22 259.86 169.36 268.17 165.17 276.17 160.63 283.86 155.75 291.25 150.52 298.36 144.96 305.23 139.07 311.89 132.89 318.38 126.45 324.75 119.77 331.06 112.9 337.35 105.89 343.69 98.78 350.15 91.61 356.78 84.44 363.64 77.3 374.55 66.78 378.3 63.32" stroke-dasharray="4 6" transform="rotate(27.586206896551726, 400, 400)" opacity="0.21"></path><path d="M381.77 76.41Q391.99 79.62 402.6 82.91 413.58 86.33 424.88 89.92 436.47 93.72 448.3 97.74 460.31 102.03 472.45 106.6 484.66 111.46 496.85 116.64 508.97 122.12 520.94 127.92 532.69 134.01 544.15 140.38 555.27 147.01 565.98 153.88 576.22 160.93 585.96 168.14 595.15 175.46 603.77 182.84 611.81 190.24 619.25 197.6 626.1 204.86 632.39 211.99 643.15 225.49 652.57 238.16 660.43 249.14 667.82 258.97 658.42 269.29 650.3 279.61 644.02 289.93 640.05 300.25 638.66 310.57 639.96 320.89 643.86 331.21 650.08 341.53 658.15 351.85 667.52 362.17 677.49 372.48 687.36 382.8 696.41 393.12 703.99 403.44 709.55 413.76 712.69 424.08 713.2 434.4 711.02 444.72 706.32 455.04 699.44 465.35 690.87 475.67 681.23 485.99 671.21 496.31 661.54 506.63 652.9 516.95 645.93 527.27 641.13 537.59 638.83 547.9 639.22 558.22 642.25 568.54 649.42 587.04 647.24 600.64 633.48 613.67 622.7 619.89 611.91 621.9 599.64 622.97 584.63 623.38 567.91 623.99 558.59 624.66 548.75 625.68 538.44 627.14 527.7 629.12 516.59 631.69 505.16 634.9 493.48 638.8 481.61 643.42 469.62 648.77 457.58 654.85 445.56 661.65 433.61 669.14 421.81 677.27 410.2 685.98 398.84 695.21 387.77 704.86 367.56 705.43 352.8 705.32 339.9 703.17 326.2 699.39 318.81 696.41 311.11 692.73 303.07 688.35 294.71 683.25 286.04 677.45 277.08 670.97 267.84 663.84 258.36 656.13 248.67 647.89 238.8 639.2 228.79 630.13 218.68 620.78 208.5 611.24 198.31 601.61 188.13 591.98 177.99 582.45 167.94 573.11 158 564.05 148.19 555.35 138.53 547.08 129.04 539.31 119.73 532.09 118.19 522.46 117.07 512.83 116.44 503.2 116.37 493.57 116.84 483.94 117.82 474.31 119.25 464.68 121.03 455.05 123.01 445.42 125.07 435.79 127.05 426.16 128.81 416.53 130.22 406.9 131.19 397.26 131.63 387.63 131.53 378 130.88 368.37 129.74 358.74 128.19 349.11 126.33 339.48 124.3 329.85 122.25 320.22 120.33 310.59 118.67 300.96 117.4 291.33 116.6 281.7 116.33 272.07 116.61 262.44 117.43 252.8 118.72 243.17 126.15 227.05 141.66 217.47 151.52 214.62 161.47 211.96 171.48 209.44 181.53 206.99 191.57 204.57 201.58 202.12 211.52 199.59 221.34 196.93 231.02 194.1 240.52 191.04 249.8 187.74 258.84 184.16 267.61 180.27 276.1 176.06 284.29 171.52 292.17 166.64 299.75 161.45 307.02 155.94 314.01 150.13 320.73 144.06 327.2 137.74 333.47 131.22 339.58 124.52 345.56 117.7 351.46 110.79 357.34 103.84 363.26 96.88 369.26 89.97 378.59 79.77 381.77 76.41" stroke-dasharray="2 1" transform="rotate(33.10344827586207, 400, 400)" opacity="0.25"></path><path d="M387.56 89.51Q398.15 92.51 409 95.6 420.09 98.82 431.37 102.19 442.79 105.75 454.3 109.53 465.85 113.55 477.37 117.83 488.8 122.39 500.1 127.24 511.19 132.38 522.02 137.82 532.53 143.54 542.69 149.54 552.43 155.8 561.73 162.3 570.54 168.99 578.86 175.86 586.65 182.87 593.92 189.97 600.67 197.12 606.91 204.27 617.74 218.34 627.33 232 635.37 244.58 642.88 256.29 644.27 268.99 635.37 286.3 630.63 296.2 628.13 306.1 628.04 316 630.36 325.9 634.94 335.8 641.47 345.7 649.53 355.6 658.58 365.5 668.02 375.4 677.22 385.31 685.59 395.21 692.56 405.11 697.67 415.01 700.59 424.91 701.11 434.81 699.22 444.71 695.03 454.61 688.81 464.51 680.99 474.41 672.08 484.31 662.66 494.21 653.37 504.12 644.81 514.02 637.56 523.92 632.08 533.82 628.75 543.72 627.79 553.62 629.26 563.52 633.79 580.87 630.41 592.73 616.87 602.94 606.95 607.63 589.55 609.58 575.01 610.37 560.47 611.53 544.43 613.56 535.55 615.27 526.22 617.49 516.47 620.27 506.34 623.65 495.87 627.66 485.1 632.34 474.1 637.67 462.92 643.67 451.61 650.31 440.24 657.57 428.86 665.41 417.52 673.76 406.28 682.57 395.18 691.77 375.71 692.11 360.91 691.94 347.52 690.05 333.21 686.74 325.51 684.13 317.49 680.9 309.17 677.04 300.55 672.53 291.67 667.38 282.55 661.6 273.21 655.21 263.69 648.26 254.02 640.78 244.23 632.85 234.37 624.51 224.47 615.85 214.56 606.93 204.68 597.86 194.86 588.69 185.13 579.53 175.51 570.45 166.03 561.53 156.7 552.85 147.53 544.49 138.54 536.5 129.73 528.95 128.4 519.68 127.55 510.41 127.21 501.15 127.43 491.88 128.18 482.61 129.42 473.34 131.05 464.08 132.99 454.81 135.08 445.54 137.21 436.27 139.22 427.01 140.98 417.74 142.38 408.47 143.33 399.2 143.76 389.93 143.64 380.67 142.98 371.4 141.83 362.13 140.25 352.87 138.37 343.6 136.29 334.33 134.16 325.06 132.12 315.8 130.3 306.53 128.83 297.26 127.79 287.99 127.27 278.73 127.29 269.46 127.85 260.19 128.92 250.92 135.92 235.61 150.73 226.94 160.16 224.48 169.72 222.14 179.37 219.87 189.08 217.62 198.84 215.34 208.61 212.98 218.35 210.5 228.04 207.86 237.63 205.01 247.1 201.94 256.4 198.6 265.52 194.98 274.42 191.06 283.07 186.83 291.46 182.28 299.57 177.43 307.38 172.27 314.89 166.83 322.11 161.11 329.03 155.15 335.67 148.97 342.05 142.61 348.19 136.1 354.12 129.47 365.45 116.04 376.51 102.62 384.79 92.76 387.56 89.51" stroke-dasharray="6 7" transform="rotate(38.62068965517241, 400, 400)" opacity="0.28"></path><path d="M394.94 102.6Q405.54 105.41 416.28 108.31 427.12 111.32 438 114.48 448.9 117.81 459.74 121.34 470.49 125.09 481.1 129.09 491.5 133.35 501.67 137.88 511.55 142.68 521.1 147.76 530.28 153.12 539.06 158.74 547.42 164.62 555.34 170.73 562.8 177.06 569.8 183.57 576.33 190.23 582.42 197.01 593.12 210.78 602.7 224.55 610.83 237.91 618.41 250.78 625.7 262.49 633.22 273.32 626.44 282.79 621.27 292.26 618.03 301.73 616.9 311.2 617.95 320.67 621.13 330.14 626.24 339.61 632.97 349.08 640.92 358.55 649.59 368.02 658.47 377.49 667.02 386.96 674.72 396.43 681.1 405.9 685.78 415.37 688.48 424.84 689.02 434.3 687.39 443.77 683.67 453.24 678.09 462.71 670.99 472.18 662.81 481.65 654.02 491.12 645.18 500.59 636.81 510.06 629.42 519.53 623.46 529 619.28 538.46 617.15 547.93 617.19 557.4 614.67 580.22 606.22 589.32 585.64 595.41 573.82 596.85 563.26 597.67 551.53 599 537.64 601.88 522.43 606.05 514.07 609.01 505.31 612.53 496.16 616.63 486.67 621.33 476.87 626.63 466.8 632.52 456.49 638.99 446.01 646.01 435.39 653.54 424.69 661.53 413.94 669.93 403.21 678.67 392.3 678.75 380.74 678.91 367.83 678.43 354.02 677.11 338.69 673.76 322.49 668.92 313.92 665.54 305.12 661.58 296.1 657.04 286.91 651.92 277.56 646.23 268.1 640.01 258.55 633.29 248.95 626.1 239.34 618.51 229.74 610.56 220.18 602.33 210.7 593.87 201.31 585.25 192.05 576.56 182.92 567.85 173.94 559.21 165.13 550.7 156.5 542.39 148.03 534.34 139.75 526.61 138.7 517.7 138.16 508.79 138.15 499.88 138.67 490.97 139.7 482.06 141.17 473.15 142.99 464.24 145.06 455.33 147.24 446.42 149.4 437.51 151.42 428.6 153.17 419.69 154.55 410.78 155.47 401.87 155.87 392.96 155.73 384.05 155.07 375.13 153.92 366.22 152.34 357.31 150.44 348.4 148.34 339.49 146.15 330.58 144.01 321.67 142.05 312.76 140.39 303.85 139.13 294.94 138.35 286.03 138.08 277.12 138.36 268.2 139.16 259.29 145.61 244.73 159.61 236.83 168.59 234.68 177.7 232.58 186.93 230.49 196.26 228.36 205.66 226.16 215.11 223.84 224.59 221.37 234.05 218.71 243.48 215.84 252.84 212.72 262.1 209.33 271.22 205.67 280.18 201.72 288.95 197.47 297.5 192.93 305.82 188.1 313.87 182.99 321.65 177.62 329.15 172.01 336.36 166.17 343.28 160.14 349.91 153.95 356.27 147.63 362.36 141.21 373.77 128.22 384.62 115.26 392.38 105.74 394.94 102.6" stroke-dasharray="6 2" transform="rotate(44.13793103448276, 400, 400)" opacity="0.31"></path><path d="M402.97 115.69Q423.47 121.03 443.87 126.79 463.83 133.18 483.01 140.4 501.12 148.57 517.92 157.76 533.21 168 546.9 179.21 558.99 191.27 569.56 204 578.79 217.16 586.98 230.46 594.48 243.63 601.69 256.36 609.06 268.37 617.07 279.43 608.05 297.48 606.32 315.53 612.24 333.58 624.54 351.64 640.53 369.69 656.73 387.74 669.61 405.79 676.37 423.84 675.53 441.89 667.28 459.95 653.42 478 636.95 496.05 621.48 514.1 610.36 532.15 606.03 550.21 609.42 568.26 599.38 574.09 590.6 578.2 575.11 582.07 559.51 583.97 550.64 585 540.62 586.85 529.22 589.99 516.32 594.79 501.86 601.54 485.91 610.4 468.59 621.4 450.13 634.45 430.77 649.29 410.83 665.58 399.49 665.51 387.07 665.57 373.48 665.21 358.72 663.91 342.86 661.22 326.03 656.8 308.41 650.4 290.22 641.92 271.7 631.39 253.09 618.95 234.62 604.89 216.49 589.57 198.87 573.42 181.86 556.94 165.53 540.61 149.88 524.92 148.97 507.8 150.13 490.69 153.11 473.57 157.27 456.46 161.68 439.34 165.4 422.23 167.62 405.11 167.84 388 166.03 370.89 162.57 353.77 158.23 336.66 153.94 319.54 150.64 302.43 149.05 285.31 149.51 268.2 151.93 251.08 168.41 247.07 185.51 243.19 203.14 239.15 221.19 234.66 239.48 229.46 257.81 223.35 275.95 216.21 293.69 207.98 310.79 198.65 327.06 188.32 342.35 177.11 356.55 165.24 369.64 152.91 381.66 140.38 397.83 121.79 402.97 115.69" stroke-dasharray="3 4" transform="rotate(49.6551724137931, 400, 400)" opacity="0.34"></path><path d="M410.61 128.78Q429.64 133.75 448.16 139.11 465.91 145.05 482.66 151.74 498.21 159.31 512.42 167.82 525.24 177.31 536.66 187.73 546.76 199 555.72 210.97 563.76 223.44 571.18 236.19 578.33 248.96 585.57 261.49 593.29 273.51 601.87 284.81 595.72 301.95 596.35 319.1 603.64 336.25 616.14 353.4 631.39 370.54 646.36 387.69 658.09 404.84 664.26 421.98 663.65 439.13 656.38 456.28 643.88 473.43 628.64 490.57 613.66 507.72 601.92 524.87 595.73 542.01 596.33 559.16 585.49 563.55 576 566.56 559.96 569.44 544.88 571.29 536.99 572.67 528.4 574.97 518.82 578.55 508.07 583.71 496.03 590.67 482.64 599.54 467.92 610.32 451.97 622.89 434.95 637.06 417.06 652.49 404.83 652.31 391.49 652.26 377.03 651.87 361.56 650.71 345.19 648.37 328.11 644.55 310.51 639.01 292.61 631.62 274.64 622.38 256.79 611.37 239.26 598.78 222.2 584.88 205.72 570.01 189.88 554.58 174.72 539 160.2 523.68 160.02 507.27 161.82 490.86 165.24 474.45 169.59 458.04 174.02 441.63 177.66 425.22 179.77 408.81 179.95 392.4 178.16 375.99 174.74 359.58 170.39 343.17 165.96 326.76 162.32 310.35 160.2 293.94 160.02 277.53 161.81 261.12 177.21 257.54 193.24 253.89 209.84 249.91 226.94 245.36 244.41 240.04 262.09 233.81 279.79 226.58 297.31 218.32 314.44 209.07 330.97 198.9 346.73 187.98 361.58 176.46 375.4 164.56 388.16 152.5 405.24 134.64 410.61 128.78" stroke-dasharray="7 6" transform="rotate(55.17241379310345, 400, 400)" opacity="0.38"></path><path d="M416.9 141.87Q433.96 146.49 450.24 151.46 465.58 156.96 479.84 163.14 492.91 170.11 504.76 177.96 515.41 186.7 524.95 196.33 533.53 206.79 541.33 217.96 548.61 229.69 555.65 241.79 562.77 254.05 570.28 266.24 578.49 278.13 587.7 289.5 584.26 305.73 586.95 321.95 595.27 338.18 607.76 354.41 622.16 370.63 635.91 386.86 646.54 403.09 652.16 419.31 651.75 435.54 645.39 451.77 634.22 467.99 620.24 484.22 605.94 500.45 593.89 516.67 586.25 532.9 584.37 549.13 572.79 552.34 562.57 554.51 545.58 556.81 530.36 558.84 523.01 560.61 515.35 563.35 507.11 567.34 498.07 572.82 488.04 579.93 476.92 588.74 464.65 599.25 451.21 611.33 436.66 624.81 421.12 639.4 407.9 639.11 393.65 638.95 378.48 638.54 362.52 637.49 345.93 635.46 328.9 632.17 311.63 627.41 294.32 621.03 277.14 612.99 260.28 603.34 243.85 592.18 227.99 579.72 212.73 566.22 198.13 551.98 184.15 537.35 170.77 522.68 171.36 506.98 173.76 491.28 177.54 475.58 182.03 459.88 186.42 444.18 189.93 428.48 191.93 412.78 192.06 397.08 190.29 381.37 186.95 365.67 182.64 349.97 178.11 334.27 174.19 318.57 171.58 302.87 170.73 287.17 171.81 271.47 186.11 268.16 201 264.6 216.49 260.58 232.52 255.91 249.01 250.44 265.85 244.08 282.88 236.77 299.94 228.51 316.85 219.35 333.4 209.39 349.43 198.77 364.76 187.63 379.25 176.18 392.81 164.61 411.13 147.49 416.9 141.87" stroke-dasharray="10 0" transform="rotate(60.689655172413794, 400, 400)" opacity="0.41"></path><path d="M421.04 154.96Q435.83 159.23 449.74 163.83 462.67 168.9 474.56 174.58 485.4 180.98 495.23 188.17 504.14 196.18 512.26 205.02 519.75 214.66 526.84 225 533.74 235.93 540.73 247.31 548.06 258.95 556 270.68 564.78 282.28 574.62 293.57 573.65 308.86 578.05 324.16 587.11 339.46 599.36 354.75 612.84 370.05 625.38 385.35 634.96 400.65 640.05 415.94 639.82 431.24 634.31 446.54 624.41 461.83 611.71 477.13 598.25 492.43 586.19 507.72 577.49 523.02 573.52 538.31 561.31 540.62 550.4 542.18 532.26 544.25 516.4 546.68 501.92 552.61 486.8 562.1 478.34 569.3 469.08 578.01 458.91 588.2 447.76 599.77 435.62 612.55 422.49 626.31 408.38 625.92 393.46 625.67 377.87 625.23 361.76 624.28 345.3 622.51 328.67 619.69 312.05 615.62 295.6 610.15 279.47 603.23 263.77 594.85 248.59 585.08 234.01 574.05 220.05 561.95 206.69 549.01 193.92 535.5 181.66 521.71 183 506.73 185.95 491.75 190.03 476.77 194.58 461.79 198.87 446.81 202.22 431.83 204.09 416.84 204.16 401.86 202.44 386.88 199.2 371.9 194.96 356.92 190.4 341.94 186.26 326.96 183.2 311.97 181.71 296.99 182.03 282.01 195.19 278.8 208.91 275.21 223.21 271.07 238.08 266.23 253.45 260.6 269.27 254.12 285.42 246.75 301.78 238.52 318.18 229.5 334.47 219.78 350.47 209.48 366.03 198.75 380.99 187.77 395.21 176.7 414.81 160.34 421.04 154.96" stroke-dasharray="10 7" transform="rotate(66.20689655172414, 400, 400)" opacity="0.44"></path><path d="M422.49 168.06Q434.96 171.99 446.56 176.22 457.26 180.88 467.09 186.08 476.08 191.92 484.32 198.46 491.94 205.76 499.09 213.82 505.94 222.63 512.68 232.12 519.54 242.22 526.72 252.81 534.43 263.75 542.88 274.89 552.23 286.05 562.63 297.08 563.84 311.44 569.6 325.8 579.07 340.16 590.91 354.53 603.4 368.89 614.76 383.25 623.35 397.61 627.94 411.98 627.87 426.34 623.15 440.7 614.45 455.07 603.03 469.43 590.53 483.79 578.74 498.16 569.36 512.52 563.73 526.89 551.04 528.54 539.54 529.73 529.15 530.71 519.77 531.71 503.64 535.21 488.98 540.96 481.99 545.63 474.89 551.55 467.48 558.78 459.6 567.33 451.11 577.18 441.89 588.21 431.86 600.29 421 613.21 406.31 612.74 391.08 612.41 375.46 611.94 359.6 611.06 343.66 609.52 327.79 607.11 312.12 603.65 296.79 599.01 281.89 593.1 267.5 585.9 253.68 577.45 240.44 567.81 227.79 557.12 215.69 545.54 204.1 533.28 192.95 520.57 194.99 506.32 198.4 492.07 202.68 477.82 207.22 463.57 211.37 449.32 214.53 435.07 216.25 420.82 216.27 406.57 214.6 392.32 211.48 378.08 207.36 363.83 202.82 349.58 198.52 335.33 195.08 321.08 192.99 306.83 192.55 292.59 204.56 289.35 217.09 285.64 230.16 281.32 243.79 276.29 257.94 270.5 272.59 263.91 287.67 256.51 303.07 248.36 318.7 239.5 334.41 230.05 350.07 220.11 365.52 209.82 380.63 199.32 395.24 188.76 415.86 173.18 422.49 168.06" stroke-dasharray="8 8" transform="rotate(71.72413793103448, 400, 400)" opacity="0.48"></path><path d="M421.08 181.15Q431.38 184.76 440.92 188.64 449.74 192.9 457.9 197.63 465.49 202.92 472.6 208.85 479.39 215.45 485.98 222.75 492.56 230.73 499.28 239.37 506.33 248.6 513.86 258.35 522.04 268.5 531 278.94 540.86 289.54 551.72 300.14 554.75 313.57 561.51 327 571.13 340.43 582.39 353.86 593.85 367.29 604.06 380.72 611.71 394.15 615.83 407.58 615.9 421.02 611.89 434.45 604.33 447.88 594.18 461.31 582.74 474.74 571.45 488.17 561.76 501.6 554.9 515.03 541.92 516.27 529.99 517.3 519.06 518.31 509.1 519.52 491.98 523.72 476.71 530.2 469.77 535.12 462.98 541.17 456.16 548.36 449.16 556.71 441.85 566.17 434.08 576.65 425.77 588.02 416.82 600.12 402.01 599.58 386.93 599.17 371.72 598.67 356.53 597.85 341.48 596.51 326.67 594.45 312.23 591.53 298.21 587.61 284.7 582.62 271.72 576.51 259.29 569.29 247.42 560.98 236.07 551.68 225.2 541.49 214.76 530.55 204.66 519.05 207.33 505.55 211.1 492.05 215.5 478.55 219.95 465.05 223.9 451.55 226.85 438.05 228.4 424.55 228.38 411.05 226.78 397.55 223.8 384.05 219.82 370.55 215.36 357.05 210.98 343.55 207.23 330.05 204.6 316.55 203.42 303.05 214.32 299.68 225.65 295.78 237.48 291.25 249.82 286.03 262.68 280.1 276.05 273.43 289.89 266.05 304.14 258.01 318.74 249.37 333.58 240.22 348.55 230.66 363.54 220.83 378.42 210.83 393.05 200.8 414.2 186.01 421.08 181.15" stroke-dasharray="10 3" transform="rotate(77.24137931034483, 400, 400)" opacity="0.51"></path><path d="M416.99 194.25Q433.05 201.25 447.63 209.23 460.67 219.63 473.47 231.81 480.07 238.98 487 246.76 494.38 255.12 502.33 263.99 510.98 273.3 520.4 282.95 530.67 292.85 541.83 302.87 546.3 315.38 553.7 327.88 563.21 340.38 573.76 352.89 584.17 365.39 593.27 377.9 600.04 390.4 603.72 402.9 603.9 415.41 600.56 427.91 594.07 440.41 585.16 452.92 574.82 465.42 564.23 477.93 554.57 490.43 546.91 502.94 533.85 503.99 521.67 505.02 510.37 506.2 499.94 507.68 490.33 509.64 481.47 512.22 473.29 515.55 465.68 519.73 458.53 524.84 451.7 530.94 445.07 538.05 438.51 546.14 431.89 555.18 425.08 565.08 417.99 575.74 410.51 587.03 396.06 586.43 381.61 585.96 367.26 585.42 353.12 584.65 339.27 583.47 325.79 581.72 312.76 579.26 300.2 575.99 288.16 571.81 276.63 566.69 265.61 560.6 255.08 553.54 244.99 545.57 235.3 536.75 225.93 527.18 216.83 516.97 220.02 504.24 224.04 491.51 228.45 478.78 232.76 466.04 236.47 453.31 239.17 440.58 240.56 427.85 240.49 415.12 238.95 402.38 236.14 389.65 232.35 376.92 228.01 364.19 223.62 351.46 219.66 338.73 216.58 325.99 214.72 313.26 224.52 309.69 234.7 305.55 245.29 300.81 256.34 295.42 267.87 289.37 279.89 282.67 292.38 275.35 305.33 267.47 318.69 259.08 332.39 250.27 346.37 241.14 360.54 231.78 374.79 222.31 389.02 212.82 410.06 198.84 416.99 194.25" stroke-dasharray="3 9" transform="rotate(82.75862068965517, 400, 400)" opacity="0.54"></path><path d="M410.72 207.34Q424.27 213.69 437.02 220.89 449.34 230.18 462.03 241.03 468.85 247.41 476.1 254.35 483.87 261.82 492.24 269.79 501.29 278.21 511.05 287.01 521.58 296.11 532.87 305.43 538.38 317.02 546.11 328.6 555.29 340.19 565.03 351.78 574.37 363.36 582.41 374.95 588.35 386.54 591.62 398.12 591.89 409.71 589.14 421.3 583.63 432.88 575.92 444.47 566.74 456.06 557 467.64 547.65 479.23 539.61 490.82 526.7 491.86 514.48 493.03 503 494.45 492.26 496.26 482.25 498.58 472.94 501.51 464.29 505.14 456.24 509.55 448.72 514.78 441.64 520.87 434.9 527.82 428.4 535.61 422.05 544.2 415.74 553.51 409.37 563.46 402.85 573.93 389.28 573.29 375.89 572.76 362.77 572.21 349.97 571.47 337.57 570.42 325.6 568.92 314.09 566.87 303.06 564.15 292.5 560.7 282.41 556.46 272.76 551.39 263.5 545.49 254.61 538.77 246.01 531.27 237.66 523.05 229.48 514.19 233.06 502.24 237.21 490.3 241.54 478.36 245.62 466.41 249.05 454.47 251.49 442.52 252.72 430.58 252.59 418.63 251.14 406.69 248.5 394.75 244.93 382.8 240.78 370.86 236.45 358.91 232.37 346.97 232.09 327.14 244.31 314.88 253.71 309.94 263.5 304.41 273.7 298.29 284.34 291.62 295.44 284.42 306.98 276.74 318.95 268.65 331.32 260.22 344.05 251.54 357.08 242.68 370.34 233.75 383.76 224.82 403.99 211.66 410.72 207.34" stroke-dasharray="11 4" transform="rotate(88.27586206896552, 400, 400)" opacity="0.57"></path><path d="M403.09 220.43Q415.05 226.15 426.82 232.6 439.05 240.84 452.04 250.41 459.17 256.03 466.77 262.15 474.91 268.75 483.62 275.82 492.94 283.32 502.89 291.22 513.48 299.45 524.71 307.94 530.89 318.63 538.63 329.31 547.29 339.99 556.14 350.67 564.43 361.36 571.46 372.04 576.63 382.72 579.51 393.4 579.86 404.09 577.64 414.77 573.05 425.45 566.47 436.14 558.45 446.82 549.68 457.5 540.89 468.19 532.83 478.87 520.28 480.05 508.26 481.45 496.81 483.18 485.96 485.33 475.73 487.98 466.1 491.22 457.08 495.09 448.62 499.66 440.69 504.94 433.25 510.95 426.22 517.69 419.54 525.13 413.14 533.23 406.94 541.93 400.86 551.16 394.83 560.84 382.54 560.16 370.56 559.59 358.94 559.02 347.71 558.31 336.89 557.37 326.5 556.09 316.55 554.37 307.03 552.14 297.92 549.31 289.19 545.84 280.82 541.68 272.76 536.82 264.95 531.26 257.36 525.01 249.93 518.09 242.59 510.56 246.41 499.42 250.57 488.28 254.73 477.15 258.52 466.01 261.64 454.87 263.82 443.74 264.87 432.6 264.7 421.46 263.34 410.32 260.89 399.19 257.56 388.05 253.63 376.91 249.44 365.78 245.34 354.64 244.11 335.9 254.55 323.7 262.82 318.59 271.4 312.97 280.32 306.85 289.62 300.26 299.31 293.23 309.41 285.82 319.92 278.07 330.84 270.06 342.14 261.86 353.79 253.53 365.77 245.15 378.02 236.79 396.79 224.48 403.09 220.43" stroke-dasharray="8 3" transform="rotate(93.79310344827586, 400, 400)" opacity="0.61"></path><path d="M395.07 233.53Q406.26 238.65 417.73 244.38 430.26 251.62 443.76 259.97 451.2 264.87 459.11 270.2 467.5 275.95 476.41 282.13 485.84 288.71 495.79 295.68 506.26 302.98 517.22 310.58 523.7 320.37 531.2 330.17 539.19 339.96 547.1 349.76 554.35 359.55 560.42 369.35 564.88 379.14 567.4 388.94 567.81 398.73 566.06 408.52 562.3 418.32 556.78 428.11 549.91 437.91 542.19 447.7 534.16 457.49 526.41 467.29 514.42 468.69 502.81 470.38 491.63 472.43 480.9 474.9 470.65 477.86 460.9 481.34 451.66 485.39 442.91 490.04 434.64 495.3 426.84 501.17 419.46 507.64 412.48 514.68 405.84 522.27 399.49 530.35 393.39 538.87 387.46 547.75 376.75 547.05 366.4 546.45 356.42 545.85 346.83 545.18 329 543.06 312.28 539.95 297.18 534.58 282.85 527.57 269.37 517.65 256.14 506 260.05 495.68 264.1 485.37 267.99 475.06 271.46 464.75 274.24 454.44 276.13 444.13 277.01 433.82 276.81 423.51 275.54 413.2 273.29 402.89 270.23 392.58 266.58 382.27 262.59 371.96 258.56 361.65 256.59 344.03 265.46 331.96 272.68 326.75 280.14 321.1 287.86 315.05 295.87 308.6 304.21 301.81 312.89 294.71 321.94 287.36 331.35 279.81 341.14 272.11 351.28 264.33 361.77 256.52 372.59 248.74 389.38 237.29 395.07 233.53" stroke-dasharray="0 6" transform="rotate(99.3103448275862, 400, 400)" opacity="0.64"></path><path d="M387.67 246.62Q398.73 251.16 410.36 256.22 423.34 262.51 437.35 269.73 445.01 273.94 453.09 278.51 461.59 283.46 470.51 288.77 479.85 294.45 489.6 300.48 499.74 306.83 510.24 313.49 516.69 322.41 523.73 331.33 530.94 340.25 537.87 349.17 544.12 358.1 549.31 367.02 553.11 375.94 555.29 384.86 555.74 393.78 554.41 402.71 551.39 411.63 546.87 420.55 541.11 429.47 534.46 438.4 527.33 447.32 520.15 456.24 508.92 457.93 497.93 459.93 487.22 462.28 476.84 465.04 466.82 468.23 457.17 471.89 447.91 476.04 439.06 480.69 430.61 485.85 422.56 491.51 414.9 497.65 407.62 504.27 400.68 511.32 394.08 518.76 380.23 530.25 364.03 533.32 347.9 532.01 332.74 530.34 319.02 527.46 305.99 523.55 293.79 517.52 281.88 510.07 274.96 498.23 277.75 481.5 281.31 472.03 284.4 462.56 286.83 453.09 288.44 443.63 289.16 434.16 288.92 424.69 287.74 415.22 285.71 405.76 282.93 396.29 279.58 386.82 275.86 377.35 272 367.89 269.55 351.45 277.03 339.61 289.84 328.62 303.21 316.64 310.29 310.15 317.64 303.42 325.28 296.51 333.23 289.45 341.49 282.29 350.09 275.07 359.01 267.85 368.26 260.68 382.74 250.1 387.67 246.62" stroke-dasharray="10 4" transform="rotate(104.82758620689654, 400, 400)" opacity="0.67"></path><path d="M381.85 259.7Q393.01 263.63 405.1 268.12 418.32 273.4 432.8 279.69 448.6 287.12 465.73 295.79 484.11 305.71 503.6 316.81 516.14 332.95 528.46 349.08 538.11 365.22 543.19 381.35 542.68 397.49 536.7 413.62 526.42 429.76 513.88 445.89 493.36 450.15 473.54 455.75 454.65 462.86 436.89 471.6 420.36 481.97 405.11 493.89 391.11 507.17 378.27 521.57 363.91 520.23 350.65 518.99 338.36 517.44 326.86 515.21 315.94 511.96 305.37 507.43 294.92 501.43 284.35 493.86 291.49 476.64 297.33 459.42 300.74 442.2 301.03 424.97 298.14 407.75 292.65 390.53 285.64 373.31 278.5 356.09 289.25 346.65 300.23 336.03 311.66 324.39 323.76 311.96 336.7 298.99 350.64 285.77 365.67 272.58 381.85 259.7 381.85 259.7 381.85 259.7" stroke-dasharray="7 7" transform="rotate(110.3448275862069, 400, 400)" opacity="0.71"></path><path d="M378.33 272.8Q389.8 276.22 402.18 280.08 415.57 284.57 429.98 289.85 445.43 296.04 461.84 303.22 479.12 311.44 497.12 320.69 508.37 335.15 518.84 349.6 526.84 364.06 531.08 378.52 530.89 392.98 526.29 407.43 518.03 421.89 507.43 436.35 488.88 441.11 470.68 447.04 453.03 454.24 436.11 462.75 420.04 472.54 404.91 483.52 390.76 495.57 377.6 508.47 366.21 507.16 355.59 505.95 345.59 504.55 336.04 502.7 326.77 500.13 317.59 496.64 308.34 492.06 298.86 486.27 305.26 470.79 310.24 455.31 313.02 439.82 313.13 424.34 310.57 408.85 305.74 393.37 299.43 377.88 292.64 362.4 302.06 353.06 311.52 342.83 321.2 331.86 331.27 320.33 341.88 308.45 353.19 296.42 371.82 278.63 378.33 272.8" stroke-dasharray="4 7" transform="rotate(115.86206896551724, 400, 400)" opacity="0.74"></path><path d="M377.58 285.89Q389.18 288.83 401.56 292.11 414.73 295.87 428.66 300.22 443.3 305.28 458.58 311.1 474.4 317.75 490.63 325.23 500.35 338.04 509 350.85 515.48 363.66 518.97 376.47 519.03 389.28 515.63 402.09 509.23 414.9 500.63 427.71 484.26 432.83 467.98 438.91 451.95 446.01 436.32 454.12 421.21 463.2 406.7 473.18 392.88 483.95 379.79 495.38 362.55 492.9 346.23 490.13 330.16 485.07 313.51 477.74 319.01 464.01 323.11 450.28 325.27 436.54 325.24 422.81 323.01 409.08 318.86 395.34 313.33 381.61 307.11 367.88 315.36 358.86 323.52 349.21 331.72 339.06 340.08 328.55 348.73 317.82 357.79 307.03 372.48 291.12 377.58 285.89" stroke-dasharray="5 9" transform="rotate(121.37931034482759, 400, 400)" opacity="0.77"></path><path d="M379.68 298.99Q391.06 301.46 403 304.2 415.48 307.29 428.46 310.81 441.87 314.84 455.65 319.45 469.72 324.67 483.97 330.53 492.02 341.72 498.94 352.91 504.05 364.1 506.86 375.29 507.1 386.48 504.73 397.67 499.99 408.85 493.35 420.04 479.26 425.32 465.12 431.35 451.03 438.15 437.08 445.69 423.39 453.95 410.02 462.85 397.06 472.33 384.55 482.29 370.73 479.96 357.13 477.53 343.04 473.69 328.19 468.35 332.69 456.37 335.9 444.4 337.51 432.42 337.35 420.45 335.44 408.47 331.98 396.5 327.29 384.52 321.84 372.54 329.04 364.08 336.08 355.21 343.05 346.02 350.02 336.62 357.08 327.11 364.32 317.6 375.75 303.59 379.68 298.99" stroke-dasharray="3 9" transform="rotate(126.89655172413794, 400, 400)" opacity="0.80"></path><path d="M384.37 312.08Q395.04 314.13 406.05 316.36 417.37 318.83 428.96 321.61 440.78 324.74 452.76 328.27 464.84 332.24 476.97 336.67 483.32 346.25 488.64 355.84 492.55 365.42 494.76 375.01 495.11 384.6 493.58 394.18 490.29 403.77 485.46 413.35 473.71 418.56 461.82 424.32 449.87 430.63 437.91 437.45 426.02 444.77 414.24 452.54 402.65 460.7 391.28 469.19 379.94 467.06 368.38 464.93 351.11 455 348.61 437.77 349.71 427.55 349.46 417.34 347.87 407.12 345.07 396.9 341.26 386.68 336.7 376.46 342.96 368.78 349.03 360.86 354.96 352.77 360.8 344.57 366.6 336.34 372.43 328.13 381.35 316.05 384.37 312.08" stroke-dasharray="4 5" transform="rotate(132.41379310344828, 400, 400)" opacity="0.84"></path><path d="M391.06 325.17Q410.11 328.58 429.71 332.62 449.61 337.58 469.51 343.66 478.12 359.65 482.65 375.65 482.2 391.64 476.86 407.63 457.83 417.79 438.33 429.38 418.66 442.23 399.12 456.1 389.62 454.19 379.59 452.36 368.82 450.23 357.18 447.46 361.22 430.52 361.56 413.59 358.13 396.65 351.6 379.71 362.13 366.21 372.08 352.41 386.35 331.9 391.06 325.17" stroke-dasharray="11 8" transform="rotate(137.9310344827586, 400, 400)" opacity="0.87"></path><path d="M398.88 338.27Q414.49 340.86 430.22 343.85 445.93 347.36 461.47 351.52 467.37 364.35 470.54 377.17 470.59 389.99 467.51 402.82 452.93 411.71 437.9 421.44 422.57 431.92 407.08 443.01 398.97 441.37 390.34 439.82 377.41 430.5 373.67 409.34 371.12 395.88 366.39 382.41 375.18 371.32 383.46 360.15 395.1 343.67 398.88 338.27" stroke-dasharray="3 9" transform="rotate(143.44827586206895, 400, 400)" opacity="0.90"></path><path d="M406.84 351.36Q418.48 353.21 430.05 355.27 441.5 357.59 452.75 360.23 456.38 369.88 458.43 379.53 458.76 389.19 457.34 398.84 446.97 406.02 436.28 413.62 425.31 421.61 414.13 429.91 400.07 427.36 384.85 424.81 386.06 414.78 385.78 404.76 384.04 394.73 380.96 384.7 387.92 376.25 394.53 367.83 403.84 355.44 406.84 351.36" stroke-dasharray="3 4" transform="rotate(148.9655172413793, 400, 400)" opacity="0.93"></path><path d="M413.94 364.45Q428.83 366.88 443.31 369.71 446.33 382.65 446.37 395.57 433.18 405.9 419.38 416.82 409.01 415 397.93 413.27 397.89 400 395.18 386.72 409.41 369.95 413.94 364.45" stroke-dasharray="5 2" transform="rotate(154.48275862068965, 400, 400)" opacity="0.97"></path></g></svg>